<svg width="250" height="93" viewBox="0 0 250 93" fill="none" xmlns="http://www.w3.org/2000/svg">
<path d="M247.82 33.9299C243.954 33.5766 98.8756 40.9206 98.8756 40.9206L6.49292 22.7652L132.227 22.0718L247.82 33.9299Z" fill="#D6E7FA"/>
<path d="M99.5717 92.7154L8.61128 72.3839C8.61128 72.3839 -1.27147 61.1235 0.137514 45.2862C1.54318 29.449 6.49284 22.7654 6.49284 22.7654L98.8788 40.9207C98.8788 40.9207 86.5859 49.6682 89.4005 68.2264C92.1953 86.7715 99.5717 92.7154 99.5717 92.7154Z" fill="url(#paint0_linear_95_1249)"/>
<path d="M34.4868 29.1286C34.4868 29.1286 29.5471 35.8188 28.1415 51.6494C26.7689 67.0409 36.0516 78.0899 36.5986 78.7206L28.3536 76.8813C28.3536 76.8813 18.4742 65.6209 19.8799 49.7738C21.2855 33.9431 26.2252 27.2529 26.2252 27.2529" fill="#A1BEF2"/>
<path d="M103.649 45.5105C103.649 45.5105 89.9973 66.0038 103.083 86.4938L240.108 81.5175C240.108 81.5175 245.575 80.5664 247.889 81.9038C250.187 83.2412 247.823 86.7679 247.823 86.7679L99.575 92.7118C99.575 92.7118 92.1986 86.7679 89.4005 68.2262C86.5859 49.668 98.8788 40.9205 98.8788 40.9205C98.8788 40.9205 243.957 33.5732 247.823 33.9298C251.688 34.2831 249.229 39.1803 249.229 39.1803L240.105 39.5336L103.649 45.5105Z" fill="#A1BEF2"/>
<path d="M236.435 64.65C237.048 72.9451 240.105 81.5176 240.105 81.5176L103.079 86.4939C103.079 86.4939 103.063 86.4609 103.029 86.3982C90.0404 65.9379 103.643 45.5106 103.643 45.5106L240.102 39.5337C240.102 39.5337 240.022 40.4187 239.793 41.9839C239.389 44.9162 238.53 50.1667 236.932 56.322C236.853 56.6291 236.786 56.9329 236.737 57.2565C236.624 57.7386 236.541 58.2405 236.495 58.7557C236.299 60.3341 236.286 62.0083 236.365 63.7023C236.385 64.0226 236.402 64.3462 236.435 64.65Z" fill="url(#paint1_linear_95_1249)"/>
<path d="M63.7306 30.0962C63.6179 32.1106 63.4389 33.6725 63.1968 34.8811C63.3427 33.8838 63.4554 32.6752 63.535 31.2553C63.714 28.0489 63.1637 25.9058 62.4012 24.4891C61.0751 21.9927 59.0859 21.7021 59.0859 21.7021L23.5067 11.8253V10.6167L59.2815 20.5397C59.2815 20.5397 61.2707 20.8303 62.5968 23.3268C63.3593 24.7467 63.9096 26.8898 63.7306 30.0962Z" fill="#9291A5"/>
<path d="M63.535 31.252C63.4554 32.6686 63.3394 33.8772 63.1968 34.8778C63.1968 34.8943 63.1968 34.9108 63.1803 34.9273C62.3216 38.956 60.6242 38.8569 58.1179 37.7804C56.1453 36.9417 37.7888 30.6774 23.5067 25.843V11.8286L59.0893 21.7054C59.0893 21.7054 61.0784 21.996 62.4045 24.4925C63.1637 25.9025 63.714 28.0456 63.535 31.252Z" fill="url(#paint2_linear_95_1249)"/>
<path d="M227.023 34.7523L62.6797 42.5983C62.6797 42.5983 67.2415 39.8773 67.2415 29.8552C67.2415 27.0847 66.8039 24.9416 66.174 23.3136L227.023 16.2568C227.023 16.2568 230.952 25.2123 227.023 34.7523Z" fill="url(#paint3_linear_95_1249)"/>
<path d="M209.3 33.5667L198.416 34.0983C198.025 34.488 198.416 34.0983 198.416 34.0983C201.075 27.6591 199.139 21.0184 198.525 19.3178L209.303 18.8423C209.3 18.8456 212.423 25.9684 209.3 33.5667Z" fill="#718091"/>
<path d="M194.066 34.0688L189.339 34.2966C192.133 27.3092 189.849 20.7775 189.355 19.5524L194.066 19.3411C194.066 19.3411 197.176 26.4672 194.066 34.0688Z" fill="#718091"/>
<path d="M227.023 16.2566L66.174 23.3134C64.5562 19.0767 61.6288 18.2214 61.6288 18.2214L14.8374 5.60709L23.5068 5.3165L180.295 0L227.023 16.2566Z" fill="url(#paint4_linear_95_1249)"/>
<path d="M67.2415 29.8518C67.2415 39.8706 62.6797 42.5949 62.6797 42.5949L23.5068 28.6597L15.4043 25.7769L15.3247 23.0691C17.7515 23.8913 20.533 24.8424 23.5101 25.8396C37.7922 30.674 56.1487 36.9382 58.1213 37.777C61.3868 39.1771 63.2632 38.936 63.734 30.0928C63.913 26.8864 63.3627 24.7433 62.6002 23.3267C61.2741 20.8302 59.2849 20.5396 59.2849 20.5396L23.5068 10.6166L14.917 8.23241L14.8374 5.60718L61.6288 18.2215C61.6288 18.2215 67.2415 19.8495 67.2415 29.8518Z" fill="url(#paint5_linear_95_1249)"/>
<path d="M124.446 60.9285L236.498 58.7524C236.548 58.2372 236.627 57.7386 236.74 57.2532L124.446 60.9285Z" fill="#ABB5CA"/>
<path d="M181.687 65.6805L236.435 64.6502C236.402 64.3431 236.385 64.0228 236.369 63.6992L181.687 65.6805Z" fill="#ABB5CA"/>
<path d="M240.105 39.5371C240.105 39.5371 240.025 40.4221 239.797 41.9873L104.309 48.027C93.5378 64.7327 102.32 84.8232 103.033 86.4016C90.0435 65.9413 103.646 45.5141 103.646 45.5141L240.105 39.5371Z" fill="url(#paint6_linear_95_1249)"/>
<path d="M31.1417 19.6084C31.1417 19.6084 30.0841 19.6579 30.0841 20.8632C30.0841 22.0685 30.0841 24.0994 30.0841 24.0994L32.0103 23.3101L33.8436 24.8523V21.6954C33.8436 21.6954 33.9364 20.7675 34.5895 20.675L31.1417 19.6084Z" fill="#749DED"/>
<path d="M41.0377 22.7454L23.5067 17.5412V16.752L41.0377 22.7454Z" fill="url(#paint7_linear_95_1249)"/>
<path d="M83.8506 7.90874C81.4471 8.12009 79.8093 8.49322 78.8512 9.01167C76.6466 8.64183 74.1369 8.46021 71.5312 8.49653C72.3832 8.05073 73.7756 7.75685 75.7515 7.60164C78.5197 7.387 81.1387 7.49928 83.8506 7.90874Z" fill="#545F68"/>
<path d="M87.5968 9.63246C87.5769 9.66548 87.557 9.70181 87.5802 9.71832C87.5729 9.73044 87.5625 9.74078 87.5533 9.74983C87.5376 9.76544 87.5257 9.77721 87.5404 9.78766C86.0386 9.86691 84.7921 10.0188 83.8074 10.2368C83.4693 10.3061 83.2007 10.3688 82.9587 10.4481L82.8361 10.3722C82.4084 9.95938 81.5299 9.58623 80.154 9.27583C80.8204 8.80362 82.1399 8.46679 84.0428 8.26536C84.2915 8.23564 84.6329 8.21583 84.9048 8.20262L85.1766 8.18941C86.9536 8.61209 87.7327 9.10741 87.5968 9.63246Z" fill="#545F68"/>
<path d="M77.1969 11.726C77.5517 11.6237 77.9793 11.518 78.5197 11.4388C78.4662 11.4365 78.4124 11.4339 78.3583 11.4312L78.2855 11.4275C78.2026 11.4233 78.119 11.419 78.0357 11.4156C76.2687 11.3232 74.558 11.1317 73.1358 10.8378C73.023 10.8609 72.8871 10.8675 72.7512 10.8741C72.4097 10.8939 72.1611 10.9236 71.9124 10.9533C70.0095 11.1548 68.7563 11.4883 68.1596 11.9572C68.8823 12.086 69.6481 12.1983 70.5233 12.2841C72.1147 12.4492 73.8353 12.5087 75.5924 12.4492C75.8443 12.1817 76.4145 11.9341 77.1969 11.726Z" fill="#545F68"/>
<path d="M87.7824 13.4762C89.5859 13.6809 91.4656 13.747 93.4017 13.6611C93.8062 13.07 93.0503 12.5417 91.1109 12.0629H90.8125C90.4047 12.0827 89.9705 12.0893 89.5362 12.0959C88.1404 12.1025 86.7182 12.0431 85.2661 11.9209L85.2701 11.9234L85.2705 11.9237C85.5336 12.0908 85.7513 12.229 85.9491 12.403C86.1546 12.6738 86.201 12.9413 85.9524 13.2054C86.579 13.321 87.2254 13.4069 87.7824 13.4762Z" fill="#545F68"/>
<path d="M78.5628 10.1476C78.2645 9.8636 78.2413 9.61264 78.4236 9.35176C77.7937 9.23619 77.124 9.13712 76.3814 9.04136C74.631 8.86634 72.8838 8.7937 71.0604 8.85643C70.898 9.08099 70.9643 9.31215 71.2361 9.53339C71.5677 9.88672 72.3501 10.1938 73.517 10.4679L73.8585 10.4481C73.9972 10.4567 74.1712 10.4478 74.3036 10.441L74.3039 10.441L74.3591 10.4382C76.0267 10.4151 77.6545 10.4613 79.2226 10.6132C78.9109 10.4646 78.6689 10.3094 78.5628 10.1476Z" fill="#545F68"/>
<path d="M71.8759 10.5538C69.4723 10.7651 67.8346 11.1383 66.8765 11.6567C65.5371 11.277 64.5492 10.6925 65.1128 10.108C65.7029 9.54002 67.1318 9.18008 69.4458 8.95554C69.3132 9.53672 70.1652 10.0783 71.8759 10.5538Z" fill="#545F68"/>
<path d="M77.714 14.414C76.8918 14.173 76.2719 13.922 75.8608 13.6578C75.4232 13.3804 75.2607 13.0865 75.327 12.7993C72.6782 12.8587 70.195 12.687 67.9208 12.3237C67.8611 12.9446 68.9154 13.4762 71.0338 13.8824C72.9666 14.2654 75.2475 14.4437 77.714 14.414Z" fill="#545F68"/>
<path d="M93.0803 9.82727C94.2539 9.91642 95.4341 10.0551 96.5248 10.2301C96.6044 9.62253 95.643 9.10409 93.4781 8.66821C91.615 8.28185 89.4037 8.09692 86.9106 8.11344C88.5815 8.60876 89.3606 9.15362 89.1385 9.7183C90.4381 9.69849 91.7443 9.7315 93.0803 9.82727Z" fill="#545F68"/>
<path d="M96.2132 10.5967C95.9148 10.8312 95.4739 11.0227 94.781 11.1911C93.9323 11.4024 92.8714 11.5775 91.4625 11.6699C90.5773 11.4817 89.5098 11.3232 88.3793 11.2142C87.5936 11.1383 86.8344 11.0788 85.9857 11.0557C87.02 10.8675 87.8024 10.6561 88.3959 10.3755C88.4853 10.3376 88.5522 10.2847 88.6188 10.2319L88.6408 10.2146C88.6486 10.2084 88.6565 10.2022 88.6645 10.1961C88.6817 10.1829 88.6992 10.17 88.7174 10.1575C88.7202 10.1563 88.7228 10.1549 88.7254 10.1536L88.7294 10.1514L88.7339 10.1488C88.7398 10.1453 88.7456 10.1416 88.7516 10.1377C88.7796 10.1196 88.8128 10.098 88.8931 10.0816C89.9408 10.0419 91.0878 10.0651 92.1189 10.1113C93.5942 10.2004 95.0264 10.359 96.2132 10.5967Z" fill="#545F68"/>
<path d="M80.1044 14.2885C82.1698 14.0937 83.4859 13.7568 84.2219 13.2813C82.9853 13.0105 82.1101 12.6902 81.6427 12.3468C81.5233 12.2708 81.3775 12.1751 81.3244 12.0958C80.1873 12.4095 78.7418 12.6209 76.9218 12.7332C76.8289 12.9544 76.8687 13.1723 77.0975 13.4101C77.4953 13.7568 78.2114 14.0705 79.3784 14.3446L79.5839 14.3347C79.6764 14.3287 79.7502 14.3205 79.8227 14.3126C79.9087 14.3031 79.9929 14.2938 80.1044 14.2885Z" fill="#545F68"/>
<path d="M92.8647 14.0243C91.9265 14.5098 90.2589 14.8169 88.0079 14.9357L87.9382 14.939C85.4816 15.0711 83.0913 14.9622 80.8171 14.5989C83.0184 14.3975 84.6097 14.0442 85.5247 13.5455C86.6387 13.7371 87.8885 13.8724 89.1748 13.9385C90.418 14.021 91.6546 14.0574 92.8647 14.0243Z" fill="#545F68"/>
<path d="M95.0827 13.5554C97.1249 13.3474 98.6168 12.9346 99.1439 12.4195C99.6014 11.9077 99.0245 11.3529 97.4233 10.9005C96.989 11.1415 96.4353 11.3562 95.6065 11.5345C94.8473 11.7095 93.876 11.8449 92.719 11.9572C94.3633 12.4393 95.2153 12.9776 95.0827 13.5554Z" fill="#545F68"/>
<path d="M84.5202 12.8125C84.5245 12.8155 84.5266 12.8186 84.5273 12.8218C84.5278 12.8238 84.5278 12.8259 84.5275 12.8281C84.5272 12.8298 84.5268 12.8317 84.5264 12.8336C84.5238 12.845 84.5206 12.859 84.5501 12.8785C83.1643 12.4658 82.4979 11.9506 82.6968 11.6039C82.735 11.6176 82.7731 11.631 82.8112 11.6444L82.8725 11.6659L82.9455 11.6914C83.0284 11.7203 83.1112 11.7492 83.1941 11.7789C84.1357 12.0959 84.5335 12.4426 84.5202 12.8125Z" fill="#545F68"/>
<path d="M83.7976 11.3628C85.0275 11.5807 87.3349 11.7755 89.5959 11.7557C88.5715 11.5741 87.441 11.4684 86.158 11.4057C85.2861 11.3661 84.5302 11.3562 83.7976 11.3628Z" fill="#545F68"/>
<path d="M87.0067 10.2005C86.463 10.5142 84.6231 10.8972 83.3069 10.9996C83.4594 10.9071 83.7478 10.8081 84.0363 10.709C84.8585 10.4811 85.8497 10.3127 87.0067 10.2005Z" fill="#545F68"/>
<path d="M81.6227 10.8741C81.5862 10.709 81.4801 10.5472 81.2812 10.3722C80.9862 10.1377 80.5552 9.90657 79.8722 9.71175C79.796 10.1344 80.5917 10.5934 81.6227 10.8741Z" fill="#545F68"/>
<path d="M80.3199 11.1251C78.4932 11.1383 76.7427 11.0128 75.095 10.7684C75.9172 10.775 77.2234 10.8047 78.1716 10.8906C79.0004 10.9467 79.7165 11.026 80.3199 11.1251Z" fill="#545F68"/>
<path d="M77.4555 12.3171C79.1762 12.1421 80.426 11.8053 80.9266 11.5114C80.1144 11.6072 79.3916 11.7128 78.8082 11.8614C78.2048 11.9935 77.7837 12.1487 77.4555 12.3171Z" fill="#545F68"/>
<defs>
<linearGradient id="paint0_linear_95_1249" x1="56.5633" y1="28.7172" x2="43.3196" y2="107.321" gradientUnits="userSpaceOnUse">
<stop stop-color="#8FAFFF"/>
<stop offset="0.5478" stop-color="#4982EB"/>
<stop offset="1" stop-color="#0D5ADA"/>
</linearGradient>
<linearGradient id="paint1_linear_95_1249" x1="230.151" y1="152.827" x2="135.111" y2="5.90404" gradientUnits="userSpaceOnUse">
<stop offset="0.00121702" stop-color="#C2D5E4"/>
<stop offset="1" stop-color="#E4E2F1"/>
</linearGradient>
<linearGradient id="paint2_linear_95_1249" x1="23.5054" y1="25.1185" x2="63.5692" y2="25.1185" gradientUnits="userSpaceOnUse">
<stop stop-color="#D7DFFF"/>
<stop offset="1" stop-color="#CCD0D3"/>
</linearGradient>
<linearGradient id="paint3_linear_95_1249" x1="145.724" y1="34.6406" x2="145.724" y2="23.9968" gradientUnits="userSpaceOnUse">
<stop stop-color="#132534"/>
<stop offset="1" stop-color="#354249"/>
</linearGradient>
<linearGradient id="paint4_linear_95_1249" x1="14.8378" y1="11.6569" x2="227.022" y2="11.6569" gradientUnits="userSpaceOnUse">
<stop stop-color="#132534"/>
<stop offset="1" stop-color="#354249"/>
</linearGradient>
<linearGradient id="paint5_linear_95_1249" x1="14.8378" y1="24.102" x2="67.2408" y2="24.102" gradientUnits="userSpaceOnUse">
<stop stop-color="#132534"/>
<stop offset="1" stop-color="#354249"/>
</linearGradient>
<linearGradient id="paint6_linear_95_1249" x1="232.841" y1="141.434" x2="131.899" y2="11.1382" gradientUnits="userSpaceOnUse">
<stop offset="0.00121702" stop-color="#C2D5E4"/>
<stop offset="0.3123" stop-color="#A8BACF"/>
<stop offset="1" stop-color="#7283A3"/>
</linearGradient>
<linearGradient id="paint7_linear_95_1249" x1="23.5054" y1="19.7491" x2="41.0378" y2="19.7491" gradientUnits="userSpaceOnUse">
<stop offset="0.00121702" stop-color="#C2D5E4"/>
<stop offset="0.3123" stop-color="#A8BACF"/>
<stop offset="1" stop-color="#7283A3"/>
</linearGradient>
</defs>
</svg>
