<svg width="792" height="312" viewBox="0 0 792 312" fill="none" xmlns="http://www.w3.org/2000/svg">
<path opacity="0.5" d="M176.231 137.893C176.231 137.893 142.499 136.983 120.623 157.058C98.7475 177.133 0.277298 278.418 0.277298 278.418C0.277298 278.418 -3.36864 285.716 15.78 287.546C34.9287 289.375 340.029 268.81 340.029 268.81L352.704 269.65C352.694 269.64 322.099 138.803 176.231 137.893Z" fill="url(#paint0_linear_150_148)"/>
<path d="M778.36 167.386C778.36 167.386 778.13 167.796 777.72 168.625C771.657 180.492 724.13 273.609 718.976 285.806C717.737 288.705 715.51 290.665 712.803 291.985C711.594 292.584 710.285 293.034 708.887 293.374C705.8 294.164 702.454 294.424 699.328 294.394H699.288C696.161 294.354 693.264 294.054 691.157 293.714C690.817 293.674 690.518 293.634 690.218 293.604C688.56 293.374 687.581 293.154 687.581 293.154L372.422 267.731L378.336 266.341C447.439 252.634 663.837 286.646 685.173 288.415C686.302 288.525 687.391 288.605 688.45 288.645C688.749 288.645 689.019 288.685 689.319 288.685C689.698 288.685 690.068 288.725 690.408 288.725H691.237C692.775 288.765 694.173 288.725 695.412 288.645C704.222 288.115 706.67 285.476 707.339 284.166C707.569 283.677 707.568 283.377 707.568 283.377L775.353 161.517C776.142 161.557 776.931 161.557 777.69 161.627C780.797 162.597 778.36 167.386 778.36 167.386Z" fill="#94A0AC"/>
<path opacity="0.5" d="M786.79 181.092C785.282 185.721 782.126 190.02 781.746 190.55C781.706 190.55 781.706 190.59 781.706 190.59C781.666 190.67 781.596 190.78 781.596 190.85C779.409 196.009 743.958 278.768 736.137 291.805C730.603 301.072 727.896 306.801 722.852 309.73C720.554 311.05 717.738 311.76 713.972 311.99C713.292 312.03 711.604 311.95 708.967 311.84C706.14 311.69 702.195 311.43 697.34 311.09C626.359 306.041 383.011 282.197 375.899 282.797C368.707 283.397 371.603 276.549 372.283 275.079C372.392 274.889 372.432 274.779 372.432 274.779L687.581 300.203C687.581 300.203 688.56 300.433 690.218 300.653C692.366 300.992 695.672 301.402 699.288 301.442H699.328C703.843 301.482 708.847 300.952 712.803 299.033L708.887 293.384C710.276 293.044 711.594 292.595 712.803 291.995C715.51 290.675 717.738 288.716 718.976 285.816C724.13 273.609 771.667 180.493 777.721 168.635C788.249 169.235 788.708 175.404 786.79 181.092Z" fill="url(#paint1_linear_150_148)"/>
<path d="M176.231 124.736C176.231 124.736 142.499 123.826 120.623 143.901C98.7375 163.966 0.277298 265.251 0.277298 265.251C0.277298 265.251 -3.36864 272.549 15.78 274.379C34.9287 276.208 331.738 264.691 331.738 264.691L352.704 256.483C352.694 256.483 322.099 125.646 176.231 124.736Z" fill="url(#paint2_linear_150_148)"/>
<path d="M790.966 173.294C790.966 173.294 789.427 176.194 786.79 181.092C785.402 183.732 783.664 186.891 781.746 190.55C781.706 190.55 781.706 190.59 781.706 190.59C781.666 190.67 781.596 190.78 781.596 190.85C766.433 219.103 737.715 272.48 731.802 282.267C726.268 291.535 723.601 297.263 718.517 300.193C716.219 301.512 713.432 302.222 709.636 302.452C708.957 302.492 707.269 302.412 704.632 302.302C701.805 302.112 697.86 301.892 693.005 301.512C622.024 296.504 383.001 275.149 375.888 275.749C374.16 275.899 372.992 275.599 372.273 275.069C369.595 273.069 372.422 267.721 372.422 267.721L687.581 293.144C687.581 293.144 688.56 293.374 690.218 293.594C690.518 293.634 690.817 293.674 691.157 293.704C693.265 294.044 696.161 294.344 699.288 294.384H699.328C702.454 294.424 705.801 294.154 708.887 293.364C710.276 293.024 711.594 292.575 712.803 291.975C715.51 290.655 717.737 288.695 718.976 285.796C724.13 273.589 771.667 180.472 777.721 168.615C778.13 167.786 778.36 167.376 778.36 167.376C778.36 167.376 780.807 162.587 777.681 161.617C797.508 162.677 790.966 173.294 790.966 173.294Z" fill="url(#paint3_linear_150_148)"/>
<path d="M372.423 241.137V250.775C368.397 253.384 364.621 255.944 362.873 257.243C362.983 256.973 363.113 256.713 363.263 256.473C364.062 255.134 367.438 249.455 372.423 241.137Z" fill="url(#paint4_linear_150_148)"/>
<path d="M363.263 256.473C363.113 256.713 362.983 256.973 362.873 257.243C364.621 255.943 368.397 253.384 372.423 250.775V261.722C371.943 262.652 371.214 264.041 370.345 265.451C370.185 265.721 370.015 265.991 369.846 266.261C368.337 268.6 366.549 270.75 365.121 270.66C362.034 270.45 340.648 271.48 340.029 268.8C339.519 266.571 341.977 262.012 342.796 260.552L344.514 260.612L349.488 258.103L350.237 257.723L352.725 256.473L363.702 238.268L372.443 241.077V241.137C367.438 249.455 364.062 255.134 363.263 256.473Z" fill="#94A0AC"/>
<path d="M372.422 261.732V267.75L369.835 266.271C370.914 264.601 371.853 262.832 372.422 261.732Z" fill="url(#paint5_linear_150_148)"/>
<path d="M682.587 269.65C682.497 269.64 682.417 269.64 682.327 269.63L682.047 268.86L682.587 269.65Z" fill="url(#paint6_linear_150_148)"/>
<path d="M352.694 256.473C293.83 182.492 79.6887 243.556 45.1372 248.225C43.9685 248.415 43.0695 248.525 42.4303 248.565C29.0352 249.925 27.1473 248.795 27.377 247.845C27.6367 247.545 27.9064 247.246 28.1662 246.946C57.4835 214.924 125.637 140.082 137.764 126.786C141.26 127.575 144.836 128.365 148.452 129.195C154.815 130.665 161.358 132.244 167.98 133.984C175.052 135.833 182.204 137.823 189.396 140.012C202.722 144.001 216.197 148.64 229.482 154.029C269.907 170.455 308.554 193.999 335.504 229.21C336.073 229.93 336.632 230.68 337.202 231.43C342.985 239.218 348.179 247.545 352.694 256.473Z" fill="url(#paint7_linear_150_148)"/>
<path d="M352.704 256.473L350.217 257.723L349.468 258.103L344.494 260.612L343.255 260.172L343.055 260.102L327.652 254.594L317.444 253.824C304.988 248.615 269.997 254.744 222.859 256.143C144.047 258.483 25.1296 266.511 21.0642 266.731C20.9643 266.741 20.9143 266.741 20.9143 266.741C20.9143 266.741 10.1663 266.071 14.8711 261.362C15.4604 260.772 17.8078 258.253 21.4837 254.254C21.5936 254.134 21.7034 254.014 21.8433 253.874C21.9432 253.764 22.0231 253.664 22.123 253.554C22.5225 253.114 22.952 252.664 23.3816 252.184L23.911 251.625C24.9898 250.445 26.1385 249.185 27.3771 247.836C27.1474 248.765 29.0552 249.905 42.4303 248.575C43.0796 248.515 43.9886 248.405 45.1373 248.235C79.6988 243.567 293.77 182.502 352.694 256.453C352.704 256.463 352.704 256.463 352.704 256.473Z" fill="url(#paint8_linear_150_148)"/>
<path d="M756.554 135.873L700.637 261.092C700.637 261.092 698.969 264.311 695.263 266.851L690.049 259.363C696.451 258.093 697.49 254.254 697.49 254.254L748.004 138.203L753.808 124.876C753.808 124.866 758.842 129.445 756.554 135.873Z" fill="url(#paint9_linear_150_148)"/>
<path d="M767.082 151.44L701.695 276.059L695.272 266.851C698.978 264.311 700.646 261.092 700.646 261.092L756.564 135.874C756.554 135.874 763.416 141.822 767.082 151.44Z" fill="url(#paint10_linear_150_148)"/>
<path d="M775.343 161.507L707.559 283.367C707.559 283.367 707.559 283.666 707.329 284.156L701.755 276.128L701.675 276.048L767.052 151.439C767.062 151.449 775.793 155.558 775.343 161.507Z" fill="url(#paint11_linear_150_148)"/>
<path d="M372.853 250.495C372.703 250.605 372.573 250.705 372.423 250.815H372.363C372.383 250.805 372.403 250.795 372.423 250.775C372.553 250.685 372.703 250.595 372.853 250.495Z" fill="url(#paint12_linear_150_148)"/>
<path d="M691.157 293.724V293.764C690.818 293.724 690.518 293.684 690.218 293.614C690.518 293.644 690.818 293.684 691.157 293.724Z" fill="#9C9BAE"/>
<path d="M378.316 266.331L372.413 267.751C374.211 267.221 376.178 266.761 378.316 266.331Z" fill="url(#paint13_linear_150_148)"/>
<path d="M372.853 250.495C372.703 250.605 372.573 250.705 372.423 250.815H372.363C372.383 250.805 372.403 250.795 372.423 250.775C372.553 250.685 372.703 250.595 372.853 250.495Z" fill="url(#paint14_linear_150_148)"/>
<path d="M682.587 269.65C682.497 269.64 682.417 269.64 682.327 269.63L682.047 268.86L682.587 269.65Z" fill="url(#paint15_linear_150_148)"/>
<path d="M752.898 85.936L746.036 104.611L736.057 130.035L731.043 142.812L696.651 230.42C696.651 230.42 693.345 235.949 677.163 234.459C676.983 234.449 676.773 234.419 676.523 234.389C676.433 234.389 676.344 234.379 676.244 234.369C675.175 234.249 673.657 234.029 671.729 233.749C671.519 233.729 671.299 233.689 671.069 233.649C670.44 233.559 669.771 233.469 669.062 233.359C669.012 233.349 668.952 233.349 668.902 233.339C668.632 233.299 668.352 233.249 668.073 233.219C667.573 233.149 667.044 233.059 666.505 232.989C664.617 232.699 662.529 232.389 660.241 232.049C659.912 231.999 659.582 231.95 659.253 231.9C657.914 231.69 656.516 231.48 655.037 231.26C654.668 231.21 654.288 231.15 653.919 231.1C652.79 230.93 651.641 230.76 650.452 230.59C649.783 230.49 649.084 230.39 648.385 230.28C646.227 229.97 643.97 229.64 641.602 229.31C640.713 229.19 639.814 229.07 638.895 228.93C636.668 228.61 634.37 228.29 631.983 227.971C630.285 227.741 628.557 227.501 626.779 227.271C622.863 226.751 618.788 226.231 614.542 225.701C613.444 225.551 612.325 225.421 611.196 225.281C604.394 224.451 597.232 223.612 589.75 222.822C588.412 222.672 587.083 222.542 585.735 222.392C570.242 220.772 584.126 221.532 566.856 220.452C564.428 220.292 562.001 220.142 559.544 220.022C557.096 219.873 554.639 219.753 552.172 219.643C550.943 219.583 549.715 219.523 548.476 219.473C545.719 219.343 542.952 219.223 540.185 219.143C539.226 219.103 538.277 219.073 537.309 219.043C535.74 218.983 534.162 218.933 532.594 218.893C531.175 218.853 529.757 218.823 528.319 218.793C520.807 218.623 513.265 218.563 505.744 218.623C504.295 218.623 502.847 218.643 501.399 218.663C497.523 218.713 493.667 218.803 489.821 218.923C485.856 219.043 481.9 219.203 477.975 219.413C476.936 219.463 475.907 219.523 474.868 219.583C474.728 219.583 474.598 219.593 474.469 219.603C473.11 219.663 471.752 219.763 470.403 219.853C470.024 219.873 469.634 219.903 469.254 219.923C467.516 220.032 465.768 220.172 464.04 220.302C463.771 220.322 463.501 220.342 463.231 220.362C457.108 220.852 451.065 221.442 445.131 222.162C444.262 222.262 443.403 222.372 442.534 222.482C442.334 222.502 442.145 222.532 441.945 222.552C440.656 222.722 439.388 222.892 438.109 223.062C435.572 223.422 433.055 223.802 430.568 224.201C429.808 224.321 429.059 224.451 428.31 224.571C427.071 224.781 425.833 225.001 424.614 225.221C423.675 225.391 422.726 225.561 421.787 225.751C420.549 225.981 419.32 226.221 418.101 226.471C416.533 226.791 414.965 227.121 413.427 227.461C398.284 230.82 384.409 235.279 372.412 241.087L363.672 238.278L437.48 115.968L445.691 118.978C445.691 118.978 488.533 70.3399 579.701 73.0692C670.87 75.8185 748.783 70.7397 748.783 70.7397C748.783 70.7397 758.392 73.1092 752.898 85.936Z" fill="url(#paint16_linear_150_148)"/>
<path d="M682.587 269.65C682.497 269.64 682.417 269.64 682.327 269.63L682.047 268.86L682.587 269.65Z" fill="url(#paint17_linear_150_148)"/>
<path d="M695.263 266.841C692.366 268.83 688.201 270.38 682.587 269.65L682.047 268.85L682.327 269.62C386.367 210.745 365.93 260.612 365.93 260.612L362.873 257.243C363.343 256.903 363.802 256.303 364.252 255.614C372.682 248.855 408.642 203.477 678.452 259.043C683.546 259.962 687.292 259.892 690.039 259.353L695.263 266.841Z" fill="url(#paint18_linear_150_148)"/>
<path d="M757.024 116.168C753.817 124.866 753.817 124.866 753.817 124.866L748.014 138.193L697.5 254.244C697.5 254.244 696.461 258.083 690.058 259.353C687.301 259.893 683.555 259.963 678.471 259.043C574.038 237.528 504.635 231.15 458.307 231.8C400.161 232.609 378.356 244.486 369.236 251.455C366.849 253.284 365.34 254.764 364.261 255.624C365.47 253.724 366.469 251.125 366.469 251.125C366.579 251.005 366.699 250.855 366.839 250.685C368.756 248.225 372.432 241.077 372.432 241.077C384.429 235.269 398.304 230.81 413.447 227.451C414.985 227.111 416.553 226.781 418.121 226.461C419.35 226.211 420.569 225.971 421.807 225.741C422.746 225.561 423.695 225.381 424.634 225.211C425.863 224.991 427.091 224.771 428.33 224.561C429.079 224.441 429.828 224.321 430.588 224.191C433.075 223.792 435.592 223.412 438.129 223.052C439.398 222.882 440.676 222.712 441.965 222.542C442.165 222.522 442.354 222.492 442.554 222.472C443.423 222.362 444.282 222.252 445.151 222.152C451.085 221.432 457.138 220.842 463.251 220.352C463.521 220.332 463.79 220.312 464.06 220.292C465.788 220.162 467.536 220.023 469.274 219.913C469.654 219.893 470.044 219.863 470.423 219.843C471.772 219.753 473.13 219.663 474.489 219.593C474.618 219.583 474.758 219.573 474.888 219.573C475.927 219.513 476.956 219.453 477.995 219.403C481.92 219.193 485.876 219.033 489.841 218.913C493.687 218.793 497.543 218.703 501.419 218.653C502.867 218.643 504.315 218.613 505.764 218.613C513.275 218.553 520.817 218.613 528.339 218.783C529.767 218.803 531.195 218.843 532.614 218.883C534.182 218.923 535.76 218.973 537.329 219.033C538.297 219.053 539.246 219.093 540.205 219.133C542.972 219.223 545.739 219.333 548.496 219.463C549.735 219.513 550.973 219.573 552.192 219.633C554.649 219.743 557.116 219.863 559.564 220.013C562.011 220.142 564.448 220.292 566.876 220.442C584.146 221.522 570.262 220.762 585.765 222.382C587.113 222.532 588.442 222.662 589.78 222.812C597.262 223.612 604.424 224.441 611.226 225.271C612.355 225.401 613.464 225.541 614.572 225.691C618.818 226.221 622.893 226.741 626.809 227.261C628.587 227.491 630.305 227.731 632.013 227.961C634.4 228.28 636.698 228.6 638.925 228.92C639.844 229.06 640.733 229.18 641.632 229.3C643.99 229.63 646.257 229.96 648.415 230.27C649.114 230.38 649.813 230.48 650.482 230.58C651.671 230.75 652.82 230.92 653.948 231.09C654.318 231.14 654.698 231.2 655.057 231.25C656.526 231.47 657.934 231.68 659.273 231.89C659.602 231.94 659.932 231.99 660.261 232.04C662.549 232.379 664.647 232.689 666.525 232.979C667.064 233.049 667.593 233.139 668.093 233.209C668.372 233.249 668.652 233.299 668.922 233.329C668.972 233.339 669.032 233.339 669.082 233.349C669.791 233.459 670.47 233.559 671.089 233.639C671.319 233.679 671.539 233.709 671.749 233.739C673.686 234.019 675.205 234.239 676.264 234.369C676.364 234.379 676.463 234.389 676.543 234.389C676.793 234.429 676.993 234.449 677.183 234.459C693.365 235.939 696.671 230.42 696.671 230.42L731.063 142.812L736.077 130.035L746.056 104.611L749.003 105.211L753.388 106.091C753.368 106.091 760.23 107.461 757.024 116.168Z" fill="url(#paint19_linear_150_148)"/>
<path d="M707.339 284.157C706.66 285.476 704.213 288.116 695.412 288.636C694.174 288.715 692.775 288.745 691.237 288.715H690.408C690.068 288.715 689.689 288.676 689.319 288.676C689.02 288.676 688.75 288.636 688.45 288.636C687.391 288.596 686.303 288.526 685.174 288.406C663.838 286.636 447.429 252.625 378.336 266.331C376.188 266.741 374.2 267.201 372.422 267.721L370.425 265.531H370.385L370.345 265.451L370.265 265.341L365.94 260.592C365.94 260.592 386.377 210.725 682.307 269.59C682.417 269.63 682.497 269.63 682.567 269.63C688.21 270.35 692.356 268.8 695.253 266.801L701.616 275.919L701.695 276.029L701.775 276.109L707.339 284.157Z" fill="url(#paint20_linear_150_148)"/>
<path d="M344.503 260.622L342.785 260.562L342.316 260.552L341.996 260.542L20.9141 266.751C20.9141 266.751 20.964 266.751 21.0639 266.741C24.9596 266.381 140.581 255.773 222.879 251.245C338.5 244.896 328.511 253.344 341.796 259.313C342.496 259.632 343.055 259.892 343.484 260.092C344.014 260.352 344.353 260.532 344.503 260.622Z" fill="#94A0AC"/>
<path d="M372.422 267.751L371.893 274.749L370.864 275.829C370.864 275.829 370.864 275.829 367.927 277.298C365.001 278.768 342.526 275.339 335.194 274.369C327.862 273.389 331.728 264.701 331.728 264.701L341.996 260.532L343.045 260.113C343.035 260.133 342.995 260.203 342.935 260.292C342.895 260.362 342.845 260.452 342.776 260.552C341.956 262.012 339.499 266.571 340.009 268.8C340.628 271.48 362.014 270.45 365.101 270.66C366.529 270.75 368.317 268.6 369.825 266.261C369.995 265.991 370.165 265.721 370.325 265.451L372.422 267.751Z" fill="url(#paint21_linear_150_148)"/>
<path d="M437.49 115.968L363.682 238.278L352.694 256.473C352.165 254.854 351.605 253.234 351.036 251.655C322.558 172.994 229.292 135.064 156.773 117.178C105.33 104.451 64.3057 101.812 64.3057 101.812C67.0126 97.743 165.663 19.8125 187.299 2.74672C189.976 0.637245 193.392 -0.34251 196.818 0.107378C230.95 4.35632 417.622 31.4396 437.49 115.968Z" fill="url(#paint22_linear_150_148)"/>
<path d="M352.694 256.473C348.18 247.546 342.985 239.218 337.192 231.42C336.622 230.67 336.063 229.91 335.494 229.2C308.544 193.979 269.897 170.435 229.472 154.019C216.187 148.63 202.712 144.001 189.387 140.002C182.195 137.813 175.043 135.824 167.97 133.974C161.348 132.244 154.795 130.655 148.442 129.185C144.826 128.355 141.25 127.566 137.754 126.776C122.551 123.457 108.327 120.747 95.7509 118.378C74.0351 114.239 60.4902 112.499 60.4902 112.499C60.4902 112.499 61.2394 106.401 64.296 101.802C64.296 101.802 105.32 104.441 156.763 117.168C181.336 123.237 208.325 131.595 234.326 143.082C285.06 165.456 332.217 199.658 351.036 251.645C351.606 253.234 352.175 254.854 352.694 256.473Z" fill="url(#paint23_linear_150_148)"/>
<path d="M245.115 241.877C165.843 243.107 28.6559 257.343 27.3074 257.463C27.2874 257.463 24.6304 257.773 23.162 256.433C22.5827 255.893 22.1831 254.594 22.1232 253.554C22.0233 253.664 21.9434 253.764 21.8435 253.874C21.7136 254.004 21.6038 254.134 21.4839 254.254C21.5238 255.393 21.9234 256.313 22.6726 256.973C24.3906 258.533 27.2774 258.213 27.3873 258.183C28.7258 258.073 165.893 243.826 245.135 242.607C330.819 241.287 334.944 254.894 343.075 260.102L344.504 260.612L344.724 260.302C344.234 259.972 339.22 240.417 245.115 241.877Z" fill="url(#paint24_linear_150_148)"/>
<path d="M251.238 234.969C171.966 236.178 28.6457 252.864 27.2972 253.014C27.2872 253.014 25.5592 253.254 24.4204 252.264C24.2107 252.084 24.0409 251.874 23.911 251.625L23.3816 252.184C23.5514 252.414 23.7412 252.624 23.941 252.814C25.3194 254.044 27.3172 253.744 27.3971 253.734C28.7156 253.594 172.006 236.918 251.258 235.708C339.18 234.349 342.356 253.334 349.138 257.883C349.268 257.973 349.378 258.053 349.478 258.113L350.227 257.733C350.177 257.693 350.077 257.633 349.967 257.563C345.283 254.344 341.527 233.569 251.238 234.969Z" fill="url(#paint25_linear_150_148)"/>
<path d="M701.635 275.958C698.689 277.828 695.283 278.858 691.816 278.948C688.38 279.028 684.814 278.798 681.388 278.598C674.536 277.728 667.623 276.328 660.751 275.129C646.986 272.629 633.212 270.16 619.407 267.831C591.768 263.412 564.029 259.533 536.2 256.443C508.411 253.324 480.472 250.245 452.423 250.665C438.409 250.755 424.405 251.815 410.54 253.854C403.618 254.934 396.725 256.233 389.963 258.083C383.22 259.922 376.488 262.042 370.285 265.361L370.405 265.551C376.588 262.322 383.34 260.272 390.083 258.513C396.845 256.743 403.728 255.514 410.64 254.514C424.484 252.624 438.459 251.725 452.433 251.785C480.402 251.595 508.221 254.884 535.98 258.223C549.855 259.942 563.719 261.812 577.554 263.832C591.408 265.751 605.233 267.871 619.038 270.05C632.872 272.109 646.687 274.309 660.501 276.538C667.424 277.608 674.266 278.878 681.318 279.618C684.864 279.688 688.31 279.788 691.856 279.568C695.392 279.348 698.869 278.148 701.755 276.148L701.635 275.958Z" fill="url(#paint26_linear_150_148)"/>
<path d="M261.336 34.3089C241.828 30.2099 222.05 27.2306 202.132 26.1809L202.142 26.3409C222.02 27.5906 241.758 30.7698 261.186 35.0587C280.615 39.3876 299.723 45.1562 318.283 52.3144L332.087 57.973L345.532 64.4314C349.299 66.0933 352.875 68.1177 356.452 70.1426L356.458 70.1458C357.204 70.5682 357.95 70.9906 358.697 71.4096C360.153 72.2709 361.638 73.0847 363.123 73.8983L363.125 73.8995C365.999 75.4748 368.873 77.0496 371.533 78.9677C388.644 89.2052 403.767 102.242 418.161 116.018L418.271 115.919L407.683 105.341C407.05 104.736 406.427 104.117 405.804 103.498L405.803 103.497C404.655 102.357 403.505 101.215 402.289 100.152L396.475 95.4336C395.115 94.36 393.774 93.2563 392.434 92.1521L392.432 92.1508C389.915 90.0782 387.397 88.0042 384.738 86.1259L372.342 77.6981C355.331 67.2407 337.491 58.023 318.712 51.1847C300.033 44.1364 280.834 38.5078 261.336 34.3089Z" fill="#CECCD8"/>
<path d="M234.116 52.1643C213.719 48.5652 193.082 46.1158 172.365 45.576L172.355 45.7259C193.052 46.4657 213.639 49.1151 233.976 52.9041C254.324 56.7032 274.401 61.9119 293.93 68.7102C313.418 75.5785 332.387 84.0364 350.177 94.5338C359.157 99.6525 367.677 105.521 375.928 111.739C384.119 118.058 391.79 125.006 399.142 132.304L399.252 132.204C385.278 116.858 368.706 103.991 350.946 93.2441C333.076 82.6367 313.967 74.2288 294.329 67.5705C274.681 60.8821 254.514 55.8134 234.116 52.1643Z" fill="#CECCD8"/>
<path d="M153.357 61.8719C174.073 62.4118 194.71 64.8612 215.108 68.4603C235.505 72.1094 255.672 77.1781 275.321 83.8665C294.959 90.5248 314.067 98.9327 331.937 109.54C349.698 120.287 366.269 133.154 380.244 148.5L380.134 148.6C372.782 141.302 365.11 134.354 356.92 128.035C348.669 121.817 340.148 115.948 331.168 110.83C313.378 100.332 294.409 91.8745 274.921 85.0062C255.393 78.2079 235.315 72.9992 214.968 69.2001C194.631 65.4111 174.043 62.7617 153.347 62.0219L153.357 61.8719Z" fill="#CECCD8"/>
<path d="M338.071 144.131C346.262 150.46 353.893 157.488 361.125 164.896L361.225 164.796C354.053 157.318 346.491 150.21 338.34 143.782C330.15 137.443 321.669 131.425 312.729 126.166C294.909 115.529 275.88 107.021 256.302 100.172C246.503 96.7633 236.574 93.7341 226.545 91.0747C216.496 88.4854 206.358 86.2759 196.159 84.3964C175.722 80.9373 155.075 78.3679 134.338 78.1779V78.3279C155.005 79.4076 175.592 81.957 195.889 85.876C216.227 89.6151 236.324 94.6938 255.912 101.302C275.471 107.991 294.509 116.328 312.35 126.806C321.319 131.965 329.83 137.873 338.071 144.131Z" fill="#CECCD8"/>
<path d="M115.339 94.4637C136.056 95.0035 156.693 97.4529 177.09 101.052C197.487 104.701 217.655 109.77 237.303 116.458C256.941 123.117 276.05 131.524 293.92 142.132C311.68 152.879 328.251 165.746 342.226 181.092L342.116 181.192C334.764 173.894 327.093 166.946 318.902 160.627C310.651 154.409 302.131 148.54 293.151 143.421C275.36 132.924 256.392 124.466 236.903 117.598C217.375 110.8 197.297 105.591 176.95 101.792C156.613 98.0028 136.026 95.3534 115.329 94.6136L115.339 94.4637Z" fill="#CECCD8"/>
<path d="M476.127 114.749C471.262 117.168 466.497 119.867 462.212 123.246L462.302 123.356C466.597 120.037 471.382 117.378 476.257 115.009C481.121 112.589 486.185 110.6 491.28 108.73C501.518 105.091 512.106 102.522 522.765 100.512C544.141 96.6631 565.927 95.4234 587.622 96.0233C609.338 96.7031 631.054 97.7628 652.75 99.0825C674.445 100.302 696.151 101.822 717.697 104.671L717.727 104.521C707.019 102.572 696.201 101.372 685.373 100.302C674.545 99.2425 663.698 98.3427 652.85 97.5729C631.134 96.2032 609.408 95.2335 587.652 94.8136C565.887 94.3737 544.041 95.7633 522.625 99.7723C511.947 101.892 501.358 104.571 491.13 108.31C486.036 110.24 480.981 112.279 476.127 114.749Z" fill="#CECCD8"/>
<path d="M445.661 146.221C449.946 142.842 454.711 140.142 459.575 137.723C464.43 135.253 469.484 133.214 474.579 131.284C484.807 127.545 495.395 124.866 506.073 122.747C527.49 118.738 549.335 117.348 571.101 117.788C592.857 118.208 614.582 119.177 636.298 120.547C647.146 121.317 657.994 122.217 668.822 123.276C679.65 124.346 690.468 125.546 701.176 127.495L701.146 127.645C679.6 124.796 657.894 123.276 636.198 122.057C614.503 120.737 592.787 119.677 571.071 118.998C549.375 118.398 527.589 119.637 506.213 123.486C495.555 125.496 484.967 128.065 474.728 131.704C469.634 133.574 464.57 135.563 459.705 137.983C454.831 140.352 450.046 143.012 445.751 146.331L445.661 146.221Z" fill="#CECCD8"/>
<path d="M443.023 160.697C438.159 163.117 433.394 165.816 429.109 169.195L429.199 169.305C433.494 165.986 438.279 163.327 443.153 160.957C448.018 158.538 453.082 156.548 458.177 154.679C468.415 151.04 479.003 148.47 489.661 146.461C511.038 142.612 532.823 141.372 554.519 141.972C576.235 142.652 597.951 143.712 619.647 145.031C641.342 146.251 663.048 147.771 684.594 150.62L684.624 150.47C673.916 148.52 663.098 147.321 652.27 146.251C641.442 145.191 630.594 144.291 619.746 143.522C598.031 142.152 576.305 141.182 554.549 140.762C532.783 140.322 510.938 141.712 489.522 145.721C478.843 147.841 468.255 150.52 458.027 154.259C452.932 156.188 447.878 158.228 443.023 160.697Z" fill="#CECCD8"/>
<path d="M412.558 192.169C416.843 188.79 421.607 186.091 426.472 183.672C431.327 181.202 436.381 179.163 441.475 177.233C451.704 173.494 462.292 170.815 472.97 168.695C494.386 164.686 516.232 163.297 537.998 163.737C559.753 164.156 581.479 165.126 603.195 166.496C614.043 167.266 624.891 168.165 635.719 169.225C646.547 170.295 657.365 171.495 668.073 173.444L668.043 173.594C646.497 170.745 624.791 169.225 603.095 168.005C581.399 166.686 559.684 165.626 537.968 164.946C516.272 164.346 494.486 165.586 473.11 169.435C462.452 171.445 451.864 174.014 441.625 177.653C436.531 179.523 431.466 181.512 426.602 183.931C421.727 186.301 416.943 188.96 412.647 192.279L412.558 192.169Z" fill="#CECCD8"/>
<path d="M409.921 206.646C405.056 209.065 400.291 211.765 396.006 215.144L396.096 215.254C400.391 211.935 405.176 209.275 410.051 206.906C414.915 204.486 419.979 202.497 425.074 200.627C435.312 196.988 445.901 194.419 456.559 192.409C477.935 188.56 499.721 187.321 521.416 187.921C543.132 188.6 564.848 189.66 586.544 190.98C608.24 192.199 629.945 193.719 651.491 196.568L651.521 196.418C640.813 194.469 629.995 193.269 619.167 192.199C608.339 191.14 597.492 190.24 586.644 189.47C564.928 188.1 543.202 187.131 521.446 186.711C499.681 186.271 477.835 187.661 456.419 191.67C445.741 193.789 435.153 196.468 424.924 200.207C419.83 202.137 414.775 204.176 409.921 206.646Z" fill="#CECCD8"/>
<path d="M748.983 105.201L745.117 115.709L735.138 141.132L730.124 153.909L695.722 241.517C695.722 241.517 692.416 247.046 676.234 245.556C676.054 245.546 675.844 245.516 675.595 245.486C675.505 245.486 675.415 245.476 675.315 245.466C674.246 245.346 672.728 245.126 670.8 244.846C670.59 244.826 670.37 244.786 670.141 244.746C669.521 244.656 668.842 244.566 668.133 244.456C668.083 244.446 668.023 244.446 667.973 244.436C667.703 244.396 667.424 244.346 667.144 244.316C666.645 244.246 666.115 244.156 665.576 244.086C663.688 243.797 661.6 243.487 659.313 243.147C658.983 243.097 658.653 243.047 658.324 242.997C656.985 242.787 655.577 242.577 654.109 242.357C653.739 242.307 653.359 242.247 653 242.197C651.871 242.027 650.722 241.857 649.534 241.687C648.864 241.587 648.165 241.487 647.466 241.377C645.308 241.067 643.051 240.737 640.684 240.407C639.795 240.287 638.896 240.167 637.977 240.028C635.749 239.708 633.452 239.388 631.064 239.068C629.366 238.838 627.638 238.598 625.86 238.368C621.944 237.848 617.869 237.328 613.624 236.798C612.525 236.648 611.406 236.518 610.277 236.378C603.475 235.549 596.313 234.709 588.831 233.919C587.493 233.769 586.164 233.639 584.816 233.489C569.323 231.87 583.208 232.629 565.927 231.55C563.52 231.39 561.082 231.24 558.635 231.12C556.188 230.97 553.73 230.85 551.263 230.74C550.035 230.68 548.786 230.62 547.567 230.57C544.81 230.43 542.043 230.32 539.267 230.24C538.328 230.2 537.359 230.17 536.39 230.14C534.832 230.08 533.253 230.03 531.685 229.99C530.267 229.95 528.828 229.92 527.41 229.89C519.878 229.72 512.357 229.66 504.835 229.72C503.377 229.72 501.918 229.74 500.48 229.76C496.604 229.81 492.748 229.89 488.903 230.02C484.947 230.14 480.992 230.3 477.066 230.51C476.027 230.56 474.998 230.62 473.959 230.68C473.81 230.68 473.68 230.69 473.56 230.7C472.201 230.76 470.833 230.86 469.494 230.94C469.115 230.96 468.715 230.99 468.346 231.01C466.598 231.12 464.86 231.26 463.131 231.39C462.852 231.41 462.592 231.43 462.312 231.45C460.964 231.56 459.635 231.67 458.297 231.79C453.552 232.209 448.847 232.679 444.213 233.249C443.344 233.349 442.494 233.459 441.625 233.569C441.426 233.589 441.226 233.619 441.036 233.639C439.738 233.809 438.469 233.979 437.19 234.149C434.673 234.509 432.136 234.889 429.659 235.289C428.9 235.409 428.15 235.539 427.391 235.659C426.163 235.869 424.914 236.088 423.695 236.308C422.756 236.478 421.827 236.648 420.869 236.838C419.64 237.068 418.411 237.308 417.193 237.558C415.624 237.878 414.046 238.208 412.518 238.548C397.375 241.907 383.5 246.366 371.484 252.174L369.206 251.435L366.809 250.665C368.727 248.205 372.403 241.057 372.403 241.057C384.399 235.249 398.274 230.79 413.417 227.431C414.955 227.091 416.523 226.761 418.092 226.441C419.32 226.191 420.539 225.951 421.778 225.721C422.717 225.541 423.665 225.361 424.604 225.191C425.833 224.971 427.062 224.751 428.3 224.541C429.049 224.421 429.799 224.301 430.558 224.171C433.045 223.772 435.562 223.392 438.099 223.032C439.368 222.862 440.647 222.692 441.935 222.522C442.135 222.502 442.325 222.472 442.524 222.452C443.393 222.342 444.252 222.232 445.122 222.132C451.055 221.412 457.108 220.822 463.221 220.332C463.491 220.312 463.761 220.292 464.03 220.272C465.759 220.142 467.507 220.002 469.245 219.893C469.624 219.873 470.014 219.843 470.393 219.823C471.742 219.733 473.1 219.643 474.459 219.573C474.589 219.563 474.729 219.553 474.858 219.553C475.897 219.493 476.926 219.433 477.965 219.383C481.891 219.173 485.846 219.013 489.812 218.893C493.657 218.773 497.513 218.683 501.389 218.633C502.837 218.623 504.286 218.593 505.734 218.593C513.246 218.533 520.787 218.593 528.309 218.763C529.737 218.783 531.166 218.823 532.584 218.863C534.152 218.903 535.731 218.953 537.299 219.013C538.268 219.033 539.217 219.073 540.176 219.113C542.943 219.203 545.709 219.313 548.466 219.443C549.705 219.493 550.944 219.553 552.162 219.613C554.619 219.723 557.087 219.843 559.534 219.993C561.981 220.122 564.419 220.272 566.846 220.422C584.117 221.502 570.232 220.742 585.735 222.362C587.083 222.512 588.412 222.642 589.75 222.792C597.232 223.592 604.394 224.421 611.196 225.251C612.325 225.381 613.434 225.521 614.543 225.671C618.788 226.201 622.863 226.721 626.779 227.241C628.557 227.471 630.275 227.711 631.983 227.941C634.371 228.26 636.668 228.58 638.895 228.9C639.814 229.04 640.703 229.16 641.603 229.28C643.96 229.61 646.227 229.94 648.385 230.25C649.084 230.36 649.783 230.46 650.453 230.56C651.641 230.73 652.79 230.9 653.919 231.07C654.288 231.12 654.668 231.18 655.028 231.23C656.496 231.45 657.904 231.66 659.243 231.87C659.572 231.92 659.902 231.97 660.232 232.02C662.519 232.359 664.617 232.669 666.495 232.959C667.034 233.029 667.564 233.119 668.063 233.189C668.343 233.229 668.622 233.279 668.892 233.309C668.942 233.319 669.002 233.319 669.052 233.329C669.761 233.439 670.44 233.539 671.06 233.619C671.289 233.659 671.509 233.689 671.719 233.719C673.657 233.999 675.175 234.219 676.234 234.349C676.334 234.359 676.434 234.369 676.514 234.369C676.763 234.409 676.963 234.429 677.153 234.439C693.335 235.919 696.641 230.4 696.641 230.4L731.033 142.792L736.047 130.015L746.026 104.591L748.983 105.201Z" fill="url(#paint27_linear_150_148)"/>
<path opacity="0.3" d="M352.695 256.483C294.669 169.255 139.562 205.136 120.104 199.647C107.658 196.148 146.275 161.057 167.981 133.984C227.784 149.58 294.929 176.163 335.514 229.19C336.083 229.93 352.135 255.723 352.695 256.483Z" fill="#5877B1"/>
<path opacity="0.5" d="M337.202 231.439C343.754 238.418 349.038 246.696 352.694 256.483C348.169 247.545 342.985 239.218 337.202 231.439Z" fill="#D7D6DE"/>
<path d="M437.49 115.958L363.682 238.268L352.704 256.473C352.704 256.473 353.444 277.558 348.269 287.245C342.556 297.953 332.767 309.48 332.767 309.48L341.846 305.981L346.921 309.54C346.921 309.54 358.847 289.635 363.862 280.527C368.117 272.789 364.761 260.622 367.977 253.224C368.087 252.954 372.702 249.975 367.977 253.224C366.689 254.114 372.542 245.436 377.527 237.118C399.143 201.017 450.805 114.948 450.805 114.948L437.49 115.958Z" fill="#749DED"/>
<defs>
<linearGradient id="paint0_linear_150_148" x1="186.963" y1="251.206" x2="98.8058" y2="442.912" gradientUnits="userSpaceOnUse">
<stop stop-color="#9C9BAE"/>
<stop offset="0.2181" stop-color="#ACACBB"/>
<stop offset="0.6457" stop-color="#D7D7DE"/>
<stop offset="1" stop-color="white"/>
</linearGradient>
<linearGradient id="paint1_linear_150_148" x1="578.529" y1="224.847" x2="632.654" y2="396.626" gradientUnits="userSpaceOnUse">
<stop stop-color="#9C9BAE"/>
<stop offset="0.2181" stop-color="#ACACBB"/>
<stop offset="0.6457" stop-color="#D7D7DE"/>
<stop offset="1" stop-color="white"/>
</linearGradient>
<linearGradient id="paint2_linear_150_148" x1="-0.00448781" y1="199.652" x2="352.698" y2="199.652" gradientUnits="userSpaceOnUse">
<stop stop-color="#142533"/>
<stop offset="0.0518" stop-color="#162734"/>
<stop offset="0.4477" stop-color="#1F2F3B"/>
<stop offset="1" stop-color="#22313D"/>
</linearGradient>
<linearGradient id="paint3_linear_150_148" x1="371.12" y1="232.047" x2="791.999" y2="232.047" gradientUnits="userSpaceOnUse">
<stop stop-color="#142533"/>
<stop offset="0.0518" stop-color="#162734"/>
<stop offset="0.4477" stop-color="#1F2F3B"/>
<stop offset="1" stop-color="#22313D"/>
</linearGradient>
<linearGradient id="paint4_linear_150_148" x1="381.272" y1="240.876" x2="389.564" y2="235.823" gradientUnits="userSpaceOnUse">
<stop stop-color="#DFDEE8"/>
<stop offset="1" stop-color="white"/>
</linearGradient>
<linearGradient id="paint5_linear_150_148" x1="369.838" y1="264.741" x2="372.42" y2="264.741" gradientUnits="userSpaceOnUse">
<stop stop-color="#ECECF1"/>
<stop offset="0.1236" stop-color="#F1F1F5"/>
<stop offset="0.5325" stop-color="#FCFCFC"/>
<stop offset="1" stop-color="white"/>
</linearGradient>
<linearGradient id="paint6_linear_150_148" x1="682.047" y1="269.251" x2="682.586" y2="269.251" gradientUnits="userSpaceOnUse">
<stop stop-color="#ECECF1"/>
<stop offset="0.1236" stop-color="#F1F1F5"/>
<stop offset="0.5325" stop-color="#FCFCFC"/>
<stop offset="1" stop-color="white"/>
</linearGradient>
<linearGradient id="paint7_linear_150_148" x1="222.073" y1="319.163" x2="131.242" y2="129.909" gradientUnits="userSpaceOnUse">
<stop stop-color="#E7DEE8"/>
<stop offset="1" stop-color="white"/>
</linearGradient>
<linearGradient id="paint8_linear_150_148" x1="13.6824" y1="243.43" x2="352.701" y2="243.43" gradientUnits="userSpaceOnUse">
<stop offset="0.00121702" stop-color="#C2D5E4"/>
<stop offset="1" stop-color="#C0C0D3"/>
</linearGradient>
<linearGradient id="paint9_linear_150_148" x1="722.988" y1="195.213" x2="730.505" y2="198.321" gradientUnits="userSpaceOnUse">
<stop stop-color="#DFDEE8"/>
<stop offset="1" stop-color="white"/>
</linearGradient>
<linearGradient id="paint10_linear_150_148" x1="725.422" y1="204.017" x2="739.458" y2="211.38" gradientUnits="userSpaceOnUse">
<stop stop-color="#DFDEE8"/>
<stop offset="1" stop-color="white"/>
</linearGradient>
<linearGradient id="paint11_linear_150_148" x1="734.214" y1="216.02" x2="744.408" y2="221.991" gradientUnits="userSpaceOnUse">
<stop stop-color="#DFDEE8"/>
<stop offset="1" stop-color="white"/>
</linearGradient>
<linearGradient id="paint12_linear_150_148" x1="372.36" y1="250.659" x2="372.85" y2="250.659" gradientUnits="userSpaceOnUse">
<stop stop-color="#ECECF1"/>
<stop offset="0.1236" stop-color="#F1F1F5"/>
<stop offset="0.5325" stop-color="#FCFCFC"/>
<stop offset="1" stop-color="white"/>
</linearGradient>
<linearGradient id="paint13_linear_150_148" x1="372.42" y1="267.038" x2="378.321" y2="267.038" gradientUnits="userSpaceOnUse">
<stop stop-color="#ECECF1"/>
<stop offset="0.1236" stop-color="#F1F1F5"/>
<stop offset="0.5325" stop-color="#FCFCFC"/>
<stop offset="1" stop-color="white"/>
</linearGradient>
<linearGradient id="paint14_linear_150_148" x1="372.36" y1="250.659" x2="372.85" y2="250.659" gradientUnits="userSpaceOnUse">
<stop stop-color="#DFDEE8"/>
<stop offset="1" stop-color="white"/>
</linearGradient>
<linearGradient id="paint15_linear_150_148" x1="682.047" y1="269.251" x2="682.586" y2="269.251" gradientUnits="userSpaceOnUse">
<stop stop-color="#ECECF1"/>
<stop offset="0.1236" stop-color="#F1F1F5"/>
<stop offset="0.5325" stop-color="#FCFCFC"/>
<stop offset="1" stop-color="white"/>
</linearGradient>
<linearGradient id="paint16_linear_150_148" x1="729.017" y1="187.89" x2="484.369" y2="141.515" gradientUnits="userSpaceOnUse">
<stop stop-color="white"/>
<stop offset="1" stop-color="#EDEEFF"/>
</linearGradient>
<linearGradient id="paint17_linear_150_148" x1="682.176" y1="269.236" x2="682.812" y2="269.343" gradientUnits="userSpaceOnUse">
<stop stop-color="#ECECF1"/>
<stop offset="0.1236" stop-color="#F1F1F5"/>
<stop offset="0.5325" stop-color="#FCFCFC"/>
<stop offset="1" stop-color="white"/>
</linearGradient>
<linearGradient id="paint18_linear_150_148" x1="362.873" y1="250.796" x2="695.267" y2="250.796" gradientUnits="userSpaceOnUse">
<stop offset="0.00121702" stop-color="#C2D5E4"/>
<stop offset="1" stop-color="#C0C0D3"/>
</linearGradient>
<linearGradient id="paint19_linear_150_148" x1="623.828" y1="198.391" x2="795.437" y2="244.605" gradientUnits="userSpaceOnUse">
<stop stop-color="#DFDEE8"/>
<stop offset="1" stop-color="white"/>
</linearGradient>
<linearGradient id="paint20_linear_150_148" x1="365.947" y1="264.811" x2="707.337" y2="264.811" gradientUnits="userSpaceOnUse">
<stop offset="0.00121702" stop-color="#C2D5E4"/>
<stop offset="1" stop-color="#C0C0D3"/>
</linearGradient>
<linearGradient id="paint21_linear_150_148" x1="330.714" y1="268.885" x2="372.42" y2="268.885" gradientUnits="userSpaceOnUse">
<stop stop-color="#142533"/>
<stop offset="0.0518" stop-color="#162734"/>
<stop offset="0.4477" stop-color="#1F2F3B"/>
<stop offset="1" stop-color="#22313D"/>
</linearGradient>
<linearGradient id="paint22_linear_150_148" x1="509.486" y1="170.751" x2="153.889" y2="105.72" gradientUnits="userSpaceOnUse">
<stop stop-color="white"/>
<stop offset="1" stop-color="#EDEEFF"/>
</linearGradient>
<linearGradient id="paint23_linear_150_148" x1="60.4978" y1="179.138" x2="352.699" y2="179.138" gradientUnits="userSpaceOnUse">
<stop offset="0.00121702" stop-color="#C2D5E4"/>
<stop offset="1" stop-color="#C0C0D3"/>
</linearGradient>
<linearGradient id="paint24_linear_150_148" x1="21.4816" y1="251.21" x2="344.721" y2="251.21" gradientUnits="userSpaceOnUse">
<stop offset="0.00121702" stop-color="#C2D5E4"/>
<stop offset="0.3123" stop-color="#A8BACF"/>
<stop offset="1" stop-color="#7283A3"/>
</linearGradient>
<linearGradient id="paint25_linear_150_148" x1="23.3791" y1="246.504" x2="350.217" y2="246.504" gradientUnits="userSpaceOnUse">
<stop offset="0.00121702" stop-color="#C2D5E4"/>
<stop offset="0.3123" stop-color="#A8BACF"/>
<stop offset="1" stop-color="#7283A3"/>
</linearGradient>
<linearGradient id="paint26_linear_150_148" x1="370.282" y1="265.166" x2="701.754" y2="265.166" gradientUnits="userSpaceOnUse">
<stop offset="0.00121702" stop-color="#C2D5E4"/>
<stop offset="0.3123" stop-color="#A8BACF"/>
<stop offset="1" stop-color="#7283A3"/>
</linearGradient>
<linearGradient id="paint27_linear_150_148" x1="366.827" y1="178.397" x2="748.981" y2="178.397" gradientUnits="userSpaceOnUse">
<stop offset="0.00121702" stop-color="#C2D5E4"/>
<stop offset="1" stop-color="#C0C0D3"/>
</linearGradient>
</defs>
</svg>
