<svg width="673" height="188" viewBox="0 0 673 188" fill="none" xmlns="http://www.w3.org/2000/svg">
<g clip-path="url(#clip0_218_127)">
<g clip-path="url(#clip1_218_127)">
<mask id="mask0_218_127" style="mask-type:luminance" maskUnits="userSpaceOnUse" x="-53" y="-26" width="775" height="262">
<path d="M722 -26H-53V236H722V-26Z" fill="white"/>
</mask>
<g mask="url(#mask0_218_127)">
<path d="M-53 -26C202.75 -26 458.5 -26 722 -26C722 60.46 722 146.92 722 236C466.25 236 210.5 236 -53 236C-53 149.54 -53 63.08 -53 -26Z" fill="#FEFEFE"/>
<path d="M7.00011 16C47.92 16 88.84 16 131 16C131 30.9085 131 30.9085 125 38C124.374 38.7934 123.747 39.5868 123.102 40.4043C121.77 42.0902 120.426 43.7665 119.07 45.4336C115.617 49.7149 112.32 54.115 109 58.5C107.646 60.271 106.292 62.0419 104.938 63.8125C101.237 68.6691 97.608 73.5745 94 78.5C88.413 86.127 82.707 93.656 76.961 101.164C72.579 106.899 68.265 112.678 64 118.5C58.495 126.016 52.888 133.447 47.207 140.83C40.3339 149.792 33.7052 158.9 27.0001 168C62.31 168.33 97.62 168.66 134 169C134 173.95 134 178.9 134 184C116.937 184.023 99.874 184.041 82.811 184.052C74.889 184.057 66.967 184.064 59.045 184.075C52.142 184.085 45.24 184.092 38.3375 184.094C34.6805 184.095 31.0235 184.098 27.3665 184.106C23.2907 184.114 19.2149 184.114 15.139 184.114C13.307 184.119 13.307 184.119 11.438 184.124C10.3343 184.123 9.23071 184.122 8.09361 184.12C6.64601 184.122 6.64601 184.122 5.16901 184.123C3.00011 184 3.00011 184 2.00011 183C0.594507 178.104 0.676408 173.469 3.12071 168.91C6.40521 163.897 10.1692 159.243 13.9298 154.583C17.3729 150.288 20.6756 145.887 24.0001 141.5C25.3541 139.729 26.7083 137.958 28.0626 136.188C31.7629 131.331 35.3924 126.426 39.0001 121.5C44.5867 113.873 50.293 106.344 56.039 98.836C60.421 93.101 64.736 87.322 69 81.5C74.505 73.9844 80.112 66.5531 85.793 59.1699C92.666 50.2083 99.295 41.0998 106 32C73.33 31.67 40.6601 31.34 7.00011 31C7.00011 26.05 7.00011 21.1 7.00011 16Z" fill="#212121"/>
<path d="M594 1C594 31.03 594 61.06 594 92C598.29 89.03 602.58 86.06 607 83C619.825 76.588 635.198 74.016 649.188 78.5C659.043 82.91 664.757 90.322 668.853 100.02C671.786 108.377 671.379 116.875 671.293 125.602C671.287 127.291 671.283 128.981 671.28 130.671C671.269 135.086 671.239 139.502 671.206 143.917C671.175 148.436 671.162 152.954 671.146 157.473C671.114 166.315 671.062 175.158 671 184C665.06 184 659.12 184 653 184C652.991 181.841 652.981 179.682 652.972 177.458C652.938 170.293 652.882 163.128 652.816 155.964C652.777 151.624 652.744 147.284 652.729 142.943C652.714 138.748 652.679 134.553 652.632 130.358C652.617 128.764 652.609 127.17 652.608 125.577C652.597 115.311 651.988 106.262 645.812 97.625C638.902 91.175 632.023 90.333 622.719 90.621C613.088 91.602 606.105 95.584 599 102C598.311 102.54 597.621 103.079 596.911 103.635C594.314 106.849 594.426 109.656 594.454 113.614C594.444 114.376 594.433 115.137 594.423 115.921C594.393 118.432 594.392 120.942 594.391 123.453C594.376 125.196 594.359 126.939 594.341 128.682C594.297 133.266 594.277 137.849 594.262 142.432C594.242 147.111 594.2 151.79 594.16 156.469C594.085 165.646 594.037 174.823 594 184C588.06 184 582.12 184 576 184C576 124.6 576 65.2 576 4C589 1 589 1 594 1Z" fill="#272727"/>
<path d="M232.312 82.5C239.659 88.543 242.763 97.053 245 106C245 112.27 245 118.54 245 125C219.92 125 194.84 125 169 125C169.97 140.527 170.733 151.932 181.664 163.008C184.88 165.751 188.031 167.587 192 169C192.918 169.356 193.835 169.712 194.781 170.078C206.484 173.43 219.09 170.906 229.625 165.375C232.935 163.458 235.956 161.316 239 159C240.98 161.64 242.96 164.28 245 167C240.704 175.591 230.603 179.596 222 183C221.234 183.321 220.468 183.642 219.68 183.973C206.309 188.845 190.488 186.567 177.812 180.813C168.317 175.685 161.99 168.489 157 159C156.346 157.766 156.346 157.766 155.68 156.508C149.753 142.541 151.25 123.385 156.453 109.383C162.957 95.16 172.437 85.746 186.625 79.25C201.491 73.7439 218.681 73.7243 232.312 82.5Z" fill="#202020"/>
<path d="M291 77C292.515 80.03 292.648 83.299 293.062 86.625C293.153 87.331 293.244 88.038 293.338 88.766C293.562 90.51 293.781 92.255 294 94C294.51 93.492 295.021 92.984 295.547 92.461C306.12 82.45 319.251 76.38 333.875 76.562C335.192 76.577 335.192 76.577 336.535 76.592C347.578 76.894 354.829 79.817 362.836 87.57C369.901 95.502 372.336 104.489 372.227 114.977C372.227 115.729 372.228 116.481 372.228 117.256C372.227 119.712 372.211 122.169 372.195 124.625C372.192 126.34 372.189 128.055 372.187 129.77C372.179 134.261 372.16 138.752 372.137 143.244C372.117 147.836 372.108 152.427 372.098 157.019C372.076 166.013 372.041 175.006 372 184C366.39 184 360.78 184 355 184C354.991 181.978 354.981 179.956 354.972 177.872C354.938 171.143 354.882 164.413 354.816 157.684C354.777 153.61 354.745 149.535 354.729 145.461C354.714 141.518 354.679 137.576 354.632 133.634C354.617 132.14 354.609 130.647 354.608 129.153C354.595 117.67 354.081 104.972 345.578 96.297C339.105 90.977 331.931 90.518 323.867 90.602C312.379 91.785 303.829 97.898 296 106C295.67 106.33 295.34 106.66 295 107C294.875 109.402 294.814 111.778 294.795 114.182C294.78 115.309 294.78 115.309 294.765 116.458C294.733 118.952 294.708 121.447 294.684 123.941C294.663 125.666 294.642 127.391 294.621 129.116C294.565 133.665 294.516 138.214 294.468 142.763C294.418 147.401 294.362 152.039 294.307 156.678C294.199 165.785 294.098 174.892 294 184C288.39 184 282.78 184 277 184C277 149.35 277 114.7 277 79C286 76.75 286 76.75 291 77Z" fill="#1F1F1F"/>
<path d="M503 54C503 62.58 503 71.16 503 80C516.86 80 530.72 80 545 80C544.67 83.96 544.34 87.92 544 92C530.47 92 516.94 92 503 92C503.062 103.131 503.062 103.131 503.16 114.262C503.208 118.808 503.252 123.355 503.271 127.902C503.286 131.572 503.321 135.242 503.368 138.912C503.383 140.304 503.391 141.697 503.392 143.09C503.403 151.905 503.634 160.614 509.427 167.76C513.111 171.389 517.401 171.398 522.375 171.562C528.813 171.346 533.472 170.213 539 167C540.176 166.423 541.351 165.845 542.562 165.25C543.367 164.838 544.171 164.425 545 164C549.052 169.403 549.052 169.403 548.824 172.02C546.482 177.649 539.37 180.531 534.125 182.875C528.572 184.884 523.532 185.463 517.688 185.5C516.947 185.506 516.207 185.513 515.444 185.519C506.641 185.316 499.378 182.05 493 176C485.294 166.577 485.72 155.923 485.805 144.344C485.808 142.831 485.811 141.317 485.813 139.804C485.821 135.846 485.84 131.887 485.863 127.928C485.883 123.879 485.892 119.83 485.902 115.781C485.924 107.854 485.959 99.927 486 92C479.07 92 472.14 92 465 92C465 88.37 465 84.74 465 81C472.26 81 479.52 81 487 81C487.103 79.474 487.206 77.947 487.312 76.375C487.758 71.6865 488.404 67.0709 489.25 62.4375C489.461 61.2606 489.673 60.0837 489.891 58.8711C491 56 491 56 493.172 54.5977C496 54 496 54 503 54Z" fill="#1F1F1F"/>
<path d="M434 77C434 112.31 434 147.62 434 184C428.06 184 422.12 184 416 184C416 149.35 416 114.7 416 79C426 77 426 77 434 77Z" fill="#272727"/>
<path d="M219.25 90.668C224.197 94.433 227.763 98.817 229 105C229 107.97 229 110.94 229 114C210.19 114 191.38 114 172 114C175.668 102.997 179.882 96.781 190.25 91.438C199.111 87.3 210.447 85.478 219.25 90.668Z" fill="#FCFCFC"/>
<path d="M425 47C431.627 47 437 41.6274 437 35C437 28.3726 431.627 23 425 23C418.373 23 413 28.3726 413 35C413 41.6274 418.373 47 425 47Z" fill="#212121"/>
</g>
</g>
</g>
<defs>
<clipPath id="clip0_218_127">
<rect width="673" height="188" fill="white"/>
</clipPath>
<clipPath id="clip1_218_127">
<rect width="775" height="262" fill="white" transform="translate(-53 -26)"/>
</clipPath>
</defs>
</svg>
