<svg width="137" height="146" viewBox="0 0 137 146" fill="none" xmlns="http://www.w3.org/2000/svg">
<path d="M126.033 125.41C119.075 128.627 117.816 136.25 117.816 136.25L41.0501 55.2612L39.3572 53.4798L2.21573 14.3002C0.578836 12.5747 -0.010297 10.1169 0.657139 7.83421C0.836116 7.22302 1.05797 6.59879 1.33576 5.98759C1.64711 5.30932 2.01438 4.6739 2.48233 4.08507C3.27282 3.08443 4.23109 2.21609 5.19869 1.50428C5.20987 1.4931 5.23225 1.48192 5.25462 1.45956C7.29235 -0.0758754 10.1858 0.246491 11.9122 2.11547L49.71 42.9535L51.4699 44.8449L126.033 125.41Z" fill="url(#paint0_linear_95_1271)"/>
<path d="M4.21243 0.40114L5.19494 1.50799C4.22921 2.21608 3.27466 3.07883 2.48604 4.0832C2.01809 4.67762 1.65082 5.3149 1.34134 5.98572L0.248828 4.57513C-0.0942117 4.13724 -0.0774325 3.53722 0.267472 3.11237L2.41147 0.442135C2.87383 -0.131789 3.74261 -0.14856 4.21243 0.40114Z" fill="#97A5B7"/>
<path d="M51.4717 44.8447C45.1255 45.769 42.1313 52.1883 41.05 55.2611L39.3572 53.4797C40.7704 50.0193 43.8782 44.5112 49.7118 42.9534L51.4717 44.8447Z" fill="#97A5B7"/>
<path d="M12.313 2.5404L12.7511 2.20686C14.1028 1.17268 16.023 1.35901 17.1528 2.63171L49.4116 38.9697C49.4116 38.9697 49.1413 39.6647 48.4944 39.5324C47.8474 39.4001 42.7969 35.4646 42.7969 35.4646L12.313 2.5404Z" fill="#97A5B7"/>
<path d="M135.127 140.677L134.827 140.944L131.598 143.793L131.118 144.216L117.814 136.248C117.814 136.248 119.073 128.625 126.031 125.408L135.127 140.677Z" fill="url(#paint1_linear_95_1271)"/>
<path d="M136.546 145.856C135.889 146.551 132.09 144.547 131.395 143.97L134.92 140.858C135.371 141.778 137.174 145.19 136.546 145.856Z" fill="#2B3A51"/>
<path opacity="0.1" d="M123.871 133.049L9.73505 8.63698C8.94072 7.76993 8.99852 6.42367 9.86557 5.62934C10.7326 4.83501 12.0789 4.89281 12.8732 5.75986L127.009 130.17C127.803 131.037 127.745 132.383 126.878 133.177C126.011 133.973 124.665 133.916 123.871 133.049Z" fill="white"/>
<defs>
<linearGradient id="paint0_linear_95_1271" x1="65.5933" y1="64.6667" x2="57.9964" y2="72.2675" gradientUnits="userSpaceOnUse">
<stop stop-color="#475B80"/>
<stop offset="0.6559" stop-color="#2C3D51"/>
<stop offset="1" stop-color="#21313E"/>
</linearGradient>
<linearGradient id="paint1_linear_95_1271" x1="130.041" y1="132.345" x2="122.31" y2="142.864" gradientUnits="userSpaceOnUse">
<stop stop-color="#7C879C"/>
<stop offset="0.3223" stop-color="#9FAABA"/>
<stop offset="0.7726" stop-color="#D5E0E8"/>
<stop offset="1" stop-color="#8391A5"/>
</linearGradient>
</defs>
</svg>
