<?xml version="1.0" encoding="UTF-8"?>
<svg id="Layer_1" data-name="Layer 1" xmlns="http://www.w3.org/2000/svg" xmlns:xlink="http://www.w3.org/1999/xlink" viewBox="0 0 232 112">
  <defs>
    <style>
      .cls-1 {
        isolation: isolate;
      }

      .cls-2, .cls-3, .cls-4, .cls-5, .cls-6, .cls-7, .cls-8 {
        stroke-width: 0px;
      }

      .cls-3 {
        fill: #fff;
      }

      .cls-4 {
        fill: url(#radial-gradient-2);
      }

      .cls-5 {
        fill: url(#radial-gradient-5);
      }

      .cls-6 {
        fill: url(#radial-gradient);
      }

      .cls-7 {
        fill: url(#radial-gradient-3);
      }

      .cls-8 {
        fill: url(#radial-gradient-4);
      }
    </style>
    <radialGradient id="radial-gradient" cx="-92.6" cy="233.5" fx="-92.6" fy="233.5" r="33.74" gradientTransform="translate(109.99 305.76) scale(1 -1)" gradientUnits="userSpaceOnUse">
      <stop offset="0" stop-color="#ebff00"/>
      <stop offset="1" stop-color="#008900"/>
    </radialGradient>
    <radialGradient id="radial-gradient-2" cx="-15.02" cy="94.63" fx="-15.02" fy="94.63" r="44.39" gradientTransform="translate(0 26.03) scale(1 -1)" xlink:href="#radial-gradient"/>
    <radialGradient id="radial-gradient-3" cx="38.88" cy="4.65" fx="38.88" fy="4.65" r="42.65" gradientTransform="translate(0 26.03) scale(1 -1)" xlink:href="#radial-gradient"/>
    <radialGradient id="radial-gradient-4" cx="50.26" cy=".27" fx="50.26" fy=".27" r="46.84" gradientTransform="translate(0 26.03) scale(1 -1)" xlink:href="#radial-gradient"/>
    <radialGradient id="radial-gradient-5" cx="68.63" cy="-29.35" fx="68.63" fy="-29.35" r="42.78" gradientTransform="translate(0 26.03) scale(1 -1)" xlink:href="#radial-gradient"/>
  </defs>
  <rect class="cls-3" width="232" height="112"/>
  <g>
    <g>
      <path class="cls-2" d="M77.32,53.29v-23.04h4.77v23.04h-4.77ZM92.06,53.29l-10.37-11.65,10-11.39h5.59l-11.02,12.44.23-2.34,11.56,12.93h-5.99Z"/>
      <path class="cls-2" d="M104.99,53.69c-.46,0-.88-.03-1.27-.08-.39-.06-.75-.14-1.1-.25v-3.95c.68.22,1.37.33,2.07.33.55,0,1.04-.08,1.48-.25s.84-.43,1.2-.79.68-.83.97-1.4l.95-1.94-.07,2.77-10.2-17.87h5.17l6.55,12.01h.16l5.59-12.01h4.9l-8.2,16.98c-.77,1.58-1.54,2.84-2.31,3.77s-1.63,1.61-2.57,2.04c-.95.43-2.06.64-3.36.64h0Z"/>
      <path class="cls-2" d="M123.72,53.29v-23.04h17.61v3.95h-12.84v15.14h5.5c1.45,0,2.54-.27,3.27-.82s1.1-1.37,1.1-2.47-.36-1.92-1.09-2.47c-.73-.55-1.82-.82-3.29-.82h-7.8v-3.95h8.09c2.02,0,3.71.27,5.07.82s2.38,1.36,3.08,2.44c.69,1.08,1.04,2.4,1.04,3.98,0,2.37-.78,4.17-2.34,5.4-1.56,1.23-3.84,1.84-6.85,1.84h-10.56Z"/>
      <path class="cls-2" d="M147.59,53.29v-23.04h17.44v4.11h-12.67v18.92h-4.77,0Z"/>
      <path class="cls-2" d="M163.05,53.29l9.35-23.04h5.99l9.35,23.04h-5.07l-7.24-18.43h-.16l-7.28,18.43h-4.94ZM167.4,49.01l1.51-3.95h12.84l1.51,3.95s-15.86,0-15.86,0Z"/>
      <path class="cls-2" d="M192.38,53.69c-.46,0-.88-.03-1.27-.08-.39-.06-.75-.14-1.1-.25v-3.95c.68.22,1.37.33,2.07.33.55,0,1.04-.08,1.48-.25s.84-.43,1.2-.79.68-.83.97-1.4l.95-1.94-.07,2.77-10.2-17.87h5.17l6.55,12.01h.16l5.59-12.01h4.9l-8.2,16.98c-.77,1.58-1.54,2.84-2.31,3.77-.77.93-1.63,1.61-2.57,2.04-.95.43-2.06.64-3.36.64h.01Z"/>
    </g>
    <g class="cls-1">
      <g class="cls-1">
        <path class="cls-2" d="M79.09,67.78l3.37,3.18h-.88l-3.27-3.06v3.06h-.66v-6.19h.66v2.98l3.11-2.98h.81l-3.13,3.02Z"/>
      </g>
      <g class="cls-1">
        <path class="cls-2" d="M86.35,66.57h.66l-2,4.57c-.18.41-.35.73-.5.97-.16.24-.34.42-.54.54-.2.12-.43.18-.7.18-.18,0-.35-.03-.51-.08v-.55c.14.05.29.08.46.08.25,0,.46-.08.63-.24.17-.16.35-.46.52-.9l.05-.14-2.17-4.42h.69l1.79,3.68h.03l1.6-3.68Z"/>
      </g>
      <g class="cls-1">
        <path class="cls-2" d="M91.08,67.11c.32.17.57.42.74.74.18.32.26.68.26,1.09s-.09.79-.28,1.12c-.19.32-.45.58-.8.75-.34.18-.74.27-1.19.27-.76,0-1.33-.23-1.72-.68-.39-.45-.58-1.11-.58-1.99,0-.65.08-1.18.23-1.6.15-.42.39-.74.72-.96.33-.23.76-.38,1.3-.45.5-.06.85-.14,1.06-.23.21-.1.32-.23.32-.4h.64c0,.35-.15.62-.45.81-.3.19-.81.32-1.53.4-.54.07-.93.24-1.19.52s-.41.7-.46,1.24c.18-.28.43-.49.76-.65.32-.16.68-.23,1.07-.23.42,0,.79.09,1.11.26ZM91.01,70.1c.29-.28.44-.66.44-1.14s-.14-.84-.43-1.12-.68-.42-1.18-.42-.89.14-1.2.42-.46.66-.46,1.12.15.86.44,1.14.69.42,1.19.42.9-.14,1.19-.42Z"/>
        <path class="cls-2" d="M93.39,70.69c-.33-.24-.5-.57-.5-1,0-.28.08-.52.25-.73.17-.21.4-.37.69-.48s.62-.17.99-.17c.31,0,.62.04.93.12.31.08.56.18.75.3v-.65c0-.37-.13-.64-.38-.82-.25-.18-.6-.27-1.04-.27s-.77.08-1.02.23c-.26.16-.38.35-.38.59h-.63c0-.26.08-.49.25-.7.17-.21.4-.37.71-.49.31-.12.67-.18,1.09-.18.61,0,1.1.14,1.46.42.36.28.54.69.54,1.23v1.88c0,.28.12.42.37.42.12,0,.21-.02.27-.06v.52c-.13.06-.27.09-.43.09-.4,0-.65-.17-.75-.5h-.04c-.19.18-.46.32-.78.43s-.67.16-1.04.16c-.54,0-.98-.12-1.31-.36ZM95.78,70.35c.3-.1.54-.24.73-.42v-.69c-.18-.11-.41-.2-.69-.27-.28-.07-.57-.1-.87-.1-.42,0-.76.07-1.03.21s-.4.34-.4.6c0,.28.12.48.36.62.24.13.56.2.95.2.33,0,.65-.05.95-.15Z"/>
        <path class="cls-2" d="M102.09,68.43v-1.86h.61v4.39h-.61v-1.98h-2.88v1.98h-.6v-4.39h.6v1.86h2.88Z"/>
        <path class="cls-2" d="M104.92,70.77c-.35-.2-.63-.47-.82-.82-.19-.35-.29-.75-.29-1.19s.1-.85.3-1.2c.2-.35.47-.62.83-.82.35-.2.75-.3,1.2-.3.42,0,.79.08,1.1.24s.56.37.73.62c.17.25.28.52.32.81h-.64c-.07-.33-.24-.6-.51-.81-.27-.21-.6-.31-1-.31-.34,0-.63.08-.88.23s-.45.36-.59.63-.21.57-.21.92.07.65.21.91.34.47.59.62c.26.15.55.23.89.23.44,0,.79-.11,1.06-.33.27-.22.44-.49.5-.81h.64c-.03.29-.13.56-.31.82-.18.26-.43.47-.75.63s-.7.24-1.13.24-.86-.1-1.21-.3Z"/>
        <path class="cls-2" d="M110.73,68.7l2.68,2.26h-.83l-2.59-2.17v2.17h-.6v-4.39h.6v2.1l2.42-2.1h.79l-2.47,2.13Z"/>
        <path class="cls-2" d="M114.83,70.96h-.69v-4.39h.6v3.59h.03l2.81-3.59h.7v4.39h-.61v-3.6h-.03l-2.8,3.6Z"/>
        <path class="cls-2" d="M120.35,70.96h-.69v-4.39h.6v3.59h.03l2.81-3.59h.7v4.39h-.61v-3.6h-.03l-2.8,3.6ZM120.74,65.45c-.24-.21-.36-.48-.36-.83h.52c0,.21.07.38.22.5s.35.18.61.18.45-.06.6-.18c.15-.12.22-.29.22-.5h.52c0,.35-.12.62-.36.83-.24.21-.57.31-.98.31s-.75-.1-.99-.31Z"/>
      </g>
      <g class="cls-1">
        <path class="cls-2" d="M127.88,70.96h-.6v-4.39h3.37v.55h-2.77v3.84Z"/>
      </g>
      <g class="cls-1">
        <path class="cls-2" d="M132.14,70.78c-.35-.2-.62-.47-.81-.82-.19-.35-.29-.75-.29-1.2s.1-.85.29-1.2c.19-.35.47-.62.81-.82.35-.2.75-.3,1.2-.3s.86.1,1.2.3c.35.2.62.47.81.82.2.35.29.75.29,1.2s-.1.85-.29,1.2c-.19.35-.46.62-.81.82-.35.19-.75.29-1.21.29s-.86-.1-1.21-.29ZM134.57,70.03c.3-.33.46-.75.46-1.27s-.15-.94-.46-1.27c-.3-.33-.71-.5-1.23-.5s-.92.16-1.22.49c-.3.33-.45.75-.45,1.28s.15.94.45,1.27c.3.33.71.49,1.22.49s.92-.16,1.23-.49Z"/>
      </g>
      <g class="cls-1">
        <path class="cls-2" d="M137.6,70.77c-.35-.2-.63-.47-.82-.82-.19-.35-.29-.75-.29-1.19s.1-.85.3-1.2c.2-.35.47-.62.83-.82.35-.2.75-.3,1.2-.3.42,0,.79.08,1.1.24s.56.37.73.62c.17.25.28.52.32.81h-.64c-.07-.33-.24-.6-.51-.81-.27-.21-.6-.31-1-.31-.34,0-.63.08-.88.23s-.45.36-.59.63-.21.57-.21.92.07.65.21.91.34.47.59.62c.26.15.55.23.89.23.44,0,.79-.11,1.06-.33.27-.22.44-.49.5-.81h.64c-.03.29-.13.56-.31.82-.18.26-.43.47-.75.63s-.7.24-1.13.24-.86-.1-1.21-.3Z"/>
      </g>
      <g class="cls-1">
        <path class="cls-2" d="M145.42,66.57h.66l-2,4.57c-.18.41-.35.73-.5.97-.16.24-.34.42-.54.54-.2.12-.43.18-.7.18-.18,0-.35-.03-.51-.08v-.55c.14.05.29.08.46.08.25,0,.46-.08.63-.24.17-.16.35-.46.52-.9l.05-.14-2.17-4.42h.69l1.79,3.68h.03l1.6-3.68Z"/>
      </g>
      <g class="cls-1">
        <path class="cls-2" d="M150.53,70.41h.71v1.74h-.61v-1.19h-3.85v1.19h-.6v-1.74h.12c.4,0,.61-.28.65-.85l.19-2.99h3.41v3.84ZM147.18,70.41h2.73v-3.29h-2.23l-.14,2.3c-.02.25-.06.46-.12.62-.07.17-.14.28-.24.34v.03Z"/>
        <path class="cls-2" d="M152.32,70.69c-.33-.24-.5-.57-.5-1,0-.28.08-.52.25-.73.17-.21.4-.37.69-.48s.62-.17.99-.17c.31,0,.62.04.93.12.31.08.56.18.75.3v-.65c0-.37-.13-.64-.38-.82-.25-.18-.6-.27-1.04-.27s-.77.08-1.02.23c-.26.16-.38.35-.38.59h-.63c0-.26.08-.49.25-.7.17-.21.4-.37.71-.49.31-.12.67-.18,1.09-.18.61,0,1.1.14,1.46.42.36.28.54.69.54,1.23v1.88c0,.28.12.42.37.42.12,0,.21-.02.27-.06v.52c-.13.06-.27.09-.43.09-.4,0-.65-.17-.75-.5h-.04c-.19.18-.46.32-.78.43s-.67.16-1.04.16c-.54,0-.98-.12-1.31-.36ZM154.71,70.35c.3-.1.54-.24.73-.42v-.69c-.18-.11-.41-.2-.69-.27-.28-.07-.57-.1-.87-.1-.42,0-.76.07-1.03.21s-.4.34-.4.6c0,.28.12.48.36.62.24.13.56.2.95.2.33,0,.65-.05.95-.15Z"/>
        <path class="cls-2" d="M157.54,72.73v-6.16h.58v.81h.03c.15-.27.38-.49.71-.67.33-.17.67-.26,1.02-.26.44,0,.83.1,1.18.29.34.19.61.47.8.82.19.35.28.75.28,1.21s-.09.85-.28,1.2c-.19.35-.45.62-.8.82-.34.19-.73.29-1.18.29-.34,0-.67-.08-.99-.24s-.56-.38-.72-.65h-.03v2.55h-.6ZM160.7,70.3c.25-.15.45-.35.59-.62.14-.27.21-.57.21-.92s-.07-.66-.21-.92c-.14-.27-.33-.48-.59-.62s-.55-.22-.88-.22-.61.07-.87.22c-.25.15-.45.36-.6.62s-.22.58-.22.92.07.65.22.92.34.47.6.62c.25.15.54.22.87.22s.62-.07.88-.22Z"/>
      </g>
      <g class="cls-1">
        <path class="cls-2" d="M164.08,70.77c-.35-.2-.63-.47-.82-.82-.19-.35-.29-.75-.29-1.19s.1-.85.3-1.2c.2-.35.47-.62.83-.82.35-.2.75-.3,1.2-.3.42,0,.79.08,1.1.24s.56.37.73.62c.17.25.28.52.32.81h-.64c-.07-.33-.24-.6-.51-.81-.27-.21-.6-.31-1-.31-.34,0-.63.08-.88.23s-.45.36-.59.63-.21.57-.21.92.07.65.21.91.34.47.59.62c.26.15.55.23.89.23.44,0,.79-.11,1.06-.33.27-.22.44-.49.5-.81h.64c-.03.29-.13.56-.31.82-.18.26-.43.47-.75.63s-.7.24-1.13.24-.86-.1-1.21-.3Z"/>
      </g>
      <g class="cls-1">
        <path class="cls-2" d="M170.28,70.96h-.61v-3.84h-1.81v-.55h4.23v.55h-1.81v3.84Z"/>
        <path class="cls-2" d="M176.19,68.67c.27.06.47.18.62.37.15.19.23.42.23.68,0,.41-.14.71-.42.92-.28.21-.7.31-1.25.31h-2.39v-4.39h2.39c.45,0,.8.1,1.04.29.24.2.36.47.36.83,0,.21-.05.4-.15.57-.1.17-.25.29-.43.38v.04ZM173.58,67.12v1.34h1.71c.28,0,.49-.06.63-.18s.22-.29.22-.5c0-.44-.28-.66-.85-.66h-1.71ZM175.46,70.41c.31,0,.54-.06.7-.18.16-.12.24-.3.24-.54,0-.48-.32-.72-.95-.72h-1.88v1.43h1.88Z"/>
        <path class="cls-2" d="M182.48,68.98h-3.96c.05.47.22.84.52,1.12s.69.42,1.16.42c.77,0,1.27-.28,1.5-.83h.67c-.13.45-.38.79-.75,1.03-.37.24-.84.35-1.42.35-.46,0-.87-.1-1.22-.29-.35-.2-.62-.47-.82-.81-.19-.35-.29-.75-.29-1.2s.1-.85.3-1.2c.2-.35.48-.62.83-.82.35-.2.75-.3,1.2-.3s.84.1,1.18.29c.34.19.62.46.81.8.2.34.29.73.29,1.16,0,.11,0,.21-.02.28ZM179.09,67.4c-.3.27-.49.63-.55,1.06h3.33c-.03-.44-.2-.79-.5-1.06s-.69-.41-1.14-.41-.82.14-1.13.41Z"/>
        <path class="cls-2" d="M187.05,68.43v-1.86h.61v4.39h-.61v-1.98h-2.88v1.98h-.6v-4.39h.6v1.86h2.88Z"/>
        <path class="cls-2" d="M192.53,68.43v-1.86h.61v4.39h-.61v-1.98h-2.88v1.98h-.6v-4.39h.6v1.86h2.88Z"/>
        <path class="cls-2" d="M196.08,68.01c.61,0,1.08.13,1.4.38.32.25.48.62.48,1.1s-.16.84-.48,1.09-.79.38-1.4.38h-1.56v-4.39h.6v1.44h.96ZM196.05,70.41c.44,0,.77-.07.97-.22.21-.15.31-.38.31-.7s-.1-.56-.31-.71c-.21-.15-.53-.22-.97-.22h-.92v1.85h.92ZM198.74,70.96v-4.39h.6v4.39h-.6Z"/>
        <path class="cls-2" d="M201.43,70.96h-.69v-4.39h.6v3.59h.03l2.81-3.59h.7v4.39h-.61v-3.6h-.03l-2.8,3.6ZM201.82,65.45c-.24-.21-.36-.48-.36-.83h.52c0,.21.07.38.22.5s.35.18.61.18.45-.06.6-.18c.15-.12.22-.29.22-.5h.52c0,.35-.12.62-.36.83-.24.21-.57.31-.98.31s-.75-.1-.99-.31Z"/>
      </g>
      <g class="cls-1">
        <path class="cls-2" d="M77.65,81.31c-.33-.24-.5-.57-.5-1,0-.28.08-.52.25-.73.17-.21.4-.37.69-.48s.62-.17.99-.17c.31,0,.62.04.93.12.31.08.56.18.75.3v-.65c0-.37-.13-.64-.38-.82-.25-.18-.6-.27-1.04-.27s-.77.08-1.02.23c-.26.16-.38.35-.38.59h-.63c0-.26.08-.49.25-.7.17-.21.4-.37.71-.49.31-.12.67-.18,1.09-.18.61,0,1.1.14,1.46.42.36.28.54.69.54,1.23v1.88c0,.28.12.42.37.42.12,0,.21-.02.27-.06v.52c-.13.06-.27.09-.43.09-.4,0-.65-.17-.75-.5h-.04c-.19.18-.46.32-.78.43s-.67.16-1.04.16c-.54,0-.98-.12-1.31-.36ZM80.04,80.97c.3-.1.54-.24.73-.42v-.69c-.18-.11-.41-.2-.69-.27-.28-.07-.57-.1-.87-.1-.42,0-.76.07-1.03.21s-.4.34-.4.6c0,.28.12.48.36.62.24.13.56.2.95.2.33,0,.65-.05.95-.15Z"/>
        <path class="cls-2" d="M83.47,81.58h-.6v-4.39h3.37v.55h-2.77v3.84Z"/>
        <path class="cls-2" d="M87.04,83.35v-6.16h.58v.81h.03c.15-.27.38-.49.71-.67.33-.17.67-.26,1.02-.26.44,0,.83.1,1.18.29.34.19.61.47.8.82.19.35.28.75.28,1.21s-.09.85-.28,1.2c-.19.35-.45.62-.8.82-.34.19-.73.29-1.18.29-.34,0-.67-.08-.99-.24s-.56-.38-.72-.65h-.03v2.55h-.6ZM90.2,80.92c.25-.15.45-.35.59-.62.14-.27.21-.57.21-.92s-.07-.66-.21-.92c-.14-.27-.33-.48-.59-.62s-.55-.22-.88-.22-.61.07-.87.22c-.25.15-.45.36-.6.62s-.22.58-.22.92.07.65.22.92.34.47.6.62c.25.15.54.22.87.22s.62-.07.88-.22Z"/>
        <path class="cls-2" d="M92.94,81.31c-.33-.24-.5-.57-.5-1,0-.28.08-.52.25-.73.17-.21.4-.37.69-.48s.62-.17.99-.17c.31,0,.62.04.93.12.31.08.56.18.75.3v-.65c0-.37-.13-.64-.38-.82-.25-.18-.6-.27-1.04-.27s-.77.08-1.02.23c-.26.16-.38.35-.38.59h-.63c0-.26.08-.49.25-.7.17-.21.4-.37.71-.49.31-.12.67-.18,1.09-.18.61,0,1.1.14,1.46.42.36.28.54.69.54,1.23v1.88c0,.28.12.42.37.42.12,0,.21-.02.27-.06v.52c-.13.06-.27.09-.43.09-.4,0-.65-.17-.75-.5h-.04c-.19.18-.46.32-.78.43s-.67.16-1.04.16c-.54,0-.98-.12-1.31-.36ZM95.32,80.97c.3-.1.54-.24.73-.42v-.69c-.18-.11-.41-.2-.69-.27-.28-.07-.57-.1-.87-.1-.42,0-.76.07-1.03.21s-.4.34-.4.6c0,.28.12.48.36.62.24.13.56.2.95.2.33,0,.65-.05.95-.15Z"/>
        <path class="cls-2" d="M98.15,83.35v-6.16h.58v.81h.03c.15-.27.38-.49.71-.67.33-.17.67-.26,1.02-.26.44,0,.83.1,1.18.29.34.19.61.47.8.82.19.35.28.75.28,1.21s-.09.85-.28,1.2c-.19.35-.45.62-.8.82-.34.19-.73.29-1.18.29-.34,0-.67-.08-.99-.24s-.56-.38-.72-.65h-.03v2.55h-.6ZM101.31,80.92c.25-.15.45-.35.59-.62.14-.27.21-.57.21-.92s-.07-.66-.21-.92c-.14-.27-.33-.48-.59-.62s-.55-.22-.88-.22-.61.07-.87.22c-.25.15-.45.36-.6.62s-.22.58-.22.92.07.65.22.92.34.47.6.62c.25.15.54.22.87.22s.62-.07.88-.22Z"/>
        <path class="cls-2" d="M107.34,79.04v-1.86h.61v4.39h-.61v-1.98h-2.88v1.98h-.6v-4.39h.6v1.86h2.88Z"/>
        <path class="cls-2" d="M110.89,78.63c.61,0,1.08.13,1.4.38.32.25.48.62.48,1.1s-.16.84-.48,1.09-.79.38-1.4.38h-1.56v-4.39h.6v1.44h.96ZM110.86,81.03c.44,0,.77-.07.97-.22.21-.15.31-.38.31-.7s-.1-.56-.31-.71c-.21-.15-.53-.22-.97-.22h-.92v1.85h.92ZM113.55,81.58v-4.39h.6v4.39h-.6Z"/>
        <path class="cls-2" d="M116.24,81.58h-.69v-4.39h.6v3.59h.03l2.81-3.59h.7v4.39h-.61v-3.6h-.03l-2.8,3.6ZM116.63,76.07c-.24-.21-.36-.48-.36-.83h.52c0,.21.07.38.22.5s.35.18.61.18.45-.06.6-.18c.15-.12.22-.29.22-.5h.52c0,.35-.12.62-.36.83-.24.21-.57.31-.98.31s-.75-.1-.99-.31Z"/>
        <path class="cls-2" d="M126.63,77.19h.66l-2,4.57c-.18.41-.35.73-.5.97-.16.24-.34.42-.54.54-.2.12-.43.18-.7.18-.18,0-.35-.03-.51-.08v-.55c.14.05.29.08.46.08.25,0,.46-.08.63-.24.17-.16.35-.46.52-.9l.05-.14-2.17-4.42h.69l1.79,3.68h.03l1.6-3.68Z"/>
        <path class="cls-2" d="M131.57,79.04v-1.86h.61v4.39h-.61v-1.98h-2.88v1.98h-.6v-4.39h.6v1.86h2.88Z"/>
        <path class="cls-2" d="M134.26,81.58h-.69v-4.39h.6v3.59h.03l2.81-3.59h.7v4.39h-.61v-3.6h-.03l-2.8,3.6Z"/>
        <path class="cls-2" d="M142.3,79.29c.27.06.47.18.62.37.15.19.23.42.23.68,0,.41-.14.71-.42.92-.28.21-.7.31-1.25.31h-2.39v-4.39h2.39c.45,0,.8.1,1.04.29.24.2.36.47.36.83,0,.21-.05.4-.15.57-.1.17-.25.29-.43.38v.04ZM139.69,77.73v1.34h1.71c.28,0,.49-.06.63-.18s.22-.29.22-.5c0-.44-.28-.66-.85-.66h-1.71ZM141.57,81.03c.31,0,.54-.06.7-.18.16-.12.24-.3.24-.54,0-.48-.32-.72-.95-.72h-1.88v1.43h1.88Z"/>
        <path class="cls-2" d="M148.59,79.6h-3.96c.05.47.22.84.52,1.12s.69.42,1.16.42c.77,0,1.27-.28,1.5-.83h.67c-.13.45-.38.79-.75,1.03-.37.24-.84.35-1.42.35-.46,0-.87-.1-1.22-.29-.35-.2-.62-.47-.82-.81-.19-.35-.29-.75-.29-1.2s.1-.85.3-1.2c.2-.35.48-.62.83-.82.35-.2.75-.3,1.2-.3s.84.1,1.18.29c.34.19.62.46.81.8.2.34.29.73.29,1.16,0,.11,0,.21-.02.28ZM145.2,78.02c-.3.27-.49.63-.55,1.06h3.33c-.03-.44-.2-.79-.5-1.06s-.69-.41-1.14-.41-.82.14-1.13.41Z"/>
        <path class="cls-2" d="M149.68,83.35v-6.16h.58v.81h.03c.15-.27.38-.49.71-.67.33-.17.67-.26,1.02-.26.44,0,.83.1,1.18.29.34.19.61.47.8.82.19.35.28.75.28,1.21s-.09.85-.28,1.2c-.19.35-.45.62-.8.82-.34.19-.73.29-1.18.29-.34,0-.67-.08-.99-.24s-.56-.38-.72-.65h-.03v2.55h-.6ZM152.84,80.92c.25-.15.45-.35.59-.62.14-.27.21-.57.21-.92s-.07-.66-.21-.92c-.14-.27-.33-.48-.59-.62s-.55-.22-.88-.22-.61.07-.87.22c-.25.15-.45.36-.6.62s-.22.58-.22.92.07.65.22.92.34.47.6.62c.25.15.54.22.87.22s.62-.07.88-.22Z"/>
        <path class="cls-2" d="M156.22,81.39c-.35-.2-.63-.47-.82-.82-.19-.35-.29-.75-.29-1.19s.1-.85.3-1.2c.2-.35.47-.62.83-.82.35-.2.75-.3,1.2-.3.42,0,.79.08,1.1.24s.56.37.73.62c.17.25.28.52.32.81h-.64c-.07-.33-.24-.6-.51-.81-.27-.21-.6-.31-1-.31-.34,0-.63.08-.88.23s-.45.36-.59.63-.21.57-.21.92.07.65.21.91.34.47.59.62c.26.15.55.23.89.23.44,0,.79-.11,1.06-.33.27-.22.44-.49.5-.81h.64c-.03.29-.13.56-.31.82-.18.26-.43.47-.75.63s-.7.24-1.13.24-.86-.1-1.21-.3Z"/>
        <path class="cls-2" d="M161.38,81.58h-.69v-4.39h.6v3.59h.03l2.81-3.59h.7v4.39h-.61v-3.6h-.03l-2.8,3.6Z"/>
      </g>
      <g class="cls-1">
        <path class="cls-2" d="M168.12,81.58h-.61v-3.84h-1.81v-.55h4.23v.55h-1.81v3.84Z"/>
        <path class="cls-2" d="M174.79,79.6h-3.96c.05.47.22.84.52,1.12s.69.42,1.16.42c.77,0,1.27-.28,1.5-.83h.67c-.13.45-.38.79-.75,1.03-.37.24-.84.35-1.42.35-.46,0-.87-.1-1.22-.29-.35-.2-.62-.47-.82-.81-.19-.35-.29-.75-.29-1.2s.1-.85.3-1.2c.2-.35.48-.62.83-.82.35-.2.75-.3,1.2-.3s.84.1,1.18.29c.34.19.62.46.81.8.2.34.29.73.29,1.16,0,.11,0,.21-.02.28ZM171.39,78.02c-.3.27-.49.63-.55,1.06h3.33c-.03-.44-.2-.79-.5-1.06s-.69-.41-1.14-.41-.82.14-1.13.41Z"/>
        <path class="cls-2" d="M177.43,81.58h-.61v-3.84h-1.81v-.55h4.23v.55h-1.81v3.84Z"/>
      </g>
    </g>
    <g>
      <g>
        <path class="cls-6" d="M23,70.08v9.3c4.52,0,12.08,1.11,15.56,6.28v-10.89c-4.52-3.22-9.99-4.59-15.56-4.69h0Z"/>
        <path class="cls-4" d="M38.56,74.76v10.89c4.23-4.89,9.75-6.28,15.76-6.28v-9.3c-5.58.09-11.26,1.46-15.75,4.69,0,0,0,0,0,0h0Z"/>
      </g>
      <g>
        <path class="cls-7" d="M38.67,24.74l-11.25,11.25c-5.33,5.33-5.8,13.68-1.41,19.55-.38-3.14.66-6.29,2.83-8.6l.36-.38,15.64-15.64-6.18-6.18Z"/>
        <path class="cls-8" d="M49.99,36.06l-3.52-3.52-15.63,15.63c-3.43,3.43-3.43,8.98,0,12.41l3.03,3.03c-.48-3.33.63-6.69,3.01-9.07l.15-.15,15.28-15.28c-.63-1.09-1.4-2.11-2.32-3.05h0Z"/>
        <path class="cls-5" d="M38.67,56c-3.43,3.43-3.43,8.98,0,12.41l11.25-11.25c4.28-4.28,5.43-10.52,3.43-15.84l-14.69,14.69h0Z"/>
      </g>
    </g>
  </g>
</svg>