<svg width="69" height="54" viewBox="0 0 69 54" fill="none" xmlns="http://www.w3.org/2000/svg">
<path d="M0 28.1492L68.76 0L19.507 35.5988L0 28.1492Z" fill="url(#paint0_linear_145_281)"/>
<path d="M25.0942 38.4631L32.6137 43.7159L31.3348 45.261L25.0989 52.8018L25.0952 41.8537L25.0942 38.4631Z" fill="url(#paint1_linear_145_281)"/>
<path d="M68.7602 0L47.3367 54.0002L32.6137 43.7159L25.0942 38.4632L40.1787 25.177L68.7602 0Z" fill="url(#paint2_linear_145_281)"/>
<path d="M68.7604 0L40.1789 25.177L25.0944 38.4632L25.0953 41.8538L25.0991 52.8018L19.5073 35.5988L68.7604 0Z" fill="url(#paint3_linear_145_281)"/>
<defs>
<linearGradient id="paint0_linear_145_281" x1="50.223" y1="-3.14488" x2="5.48448" y2="45.4438" gradientUnits="userSpaceOnUse">
<stop stop-color="#F0F8FF"/>
<stop offset="1" stop-color="#EDEEFF"/>
</linearGradient>
<linearGradient id="paint1_linear_145_281" x1="23.0343" y1="31.6234" x2="34.1071" y2="63.2303" gradientUnits="userSpaceOnUse">
<stop offset="0.3441" stop-color="#3365E7"/>
<stop offset="1" stop-color="#E6E7FF"/>
</linearGradient>
<linearGradient id="paint2_linear_145_281" x1="67.2377" y1="12.5214" x2="22.4992" y2="61.1101" gradientUnits="userSpaceOnUse">
<stop stop-color="#F0F8FF"/>
<stop offset="1" stop-color="#EDEEFF"/>
</linearGradient>
<linearGradient id="paint3_linear_145_281" x1="53.6786" y1="-5.21793" x2="29.3755" y2="53.3543" gradientUnits="userSpaceOnUse">
<stop stop-color="#B5E5DE"/>
<stop offset="1" stop-color="#B2B6F2"/>
</linearGradient>
</defs>
</svg>
