<svg width="307" height="253" viewBox="0 0 307 253" fill="none" xmlns="http://www.w3.org/2000/svg">
<path d="M133.169 10.0527L151.638 58.7991C153 62.3908 151.898 66.4825 148.925 68.9659L116.823 95.4329L110.987 135.042L90.1263 117.437L77.9408 127.46L72.4157 132.006L62.8197 139.938C61.1947 141.279 59.301 141.911 57.4051 141.946C55.3176 142.052 53.2905 141.4 51.6759 140.148C50.455 139.279 49.4654 138.063 48.8362 136.592C48.78 136.513 48.7633 136.404 48.705 136.325L45.0008 127.017L27.8381 83.8848C26.3193 80.1618 27.5276 75.8764 30.7444 73.4013L102.176 19.1486L119.352 6.10261C120.954 4.89634 122.808 4.29425 124.598 4.27759C124.775 4.27134 124.95 4.26717 125.048 4.31717L125.087 4.288C128.537 4.40675 131.833 6.50053 133.169 10.0527Z" fill="url(#paint0_linear_292_55)"/>
<path d="M124.589 4.28168C122.806 4.28168 120.952 4.88793 119.347 6.10045L102.16 19.1527L30.7338 73.3908C27.5255 75.8867 26.313 80.1659 27.8463 83.8743L44.9986 127.023L48.707 136.329C48.7778 136.4 48.7778 136.508 48.8507 136.579C49.457 138.077 50.457 139.29 51.6674 140.146C52.4529 140.717 53.307 141.179 54.2341 141.5C45.6757 140.002 23.3525 135.758 21.5337 131.229L0.637636 78.8117C-0.860299 75.0679 0.352217 70.7533 3.52726 68.3283L92.1409 1.03789C97.6659 -2.49341 120.454 4.10459 124.589 4.28168Z" fill="url(#paint1_linear_292_55)"/>
<path d="M54.4465 141.535C55.659 141.715 56.5507 141.856 57.0861 141.962C56.1591 141.965 55.3028 141.821 54.4465 141.535Z" fill="url(#paint2_linear_292_55)"/>
<path d="M57.478 142C57.4072 142 57.3364 142 57.1926 141.965H57.4072C57.4426 141.965 57.4426 141.965 57.478 142Z" fill="url(#paint3_linear_292_55)"/>
<path d="M110.987 135.044L83.8157 129.937L79.4803 126.304L77.9407 127.462L90.1262 117.439L110.987 135.044Z" fill="url(#paint4_linear_292_55)"/>
<path d="M158.417 171.108L169 195.52C169.781 197.318 169.317 199.431 167.86 200.768L152.126 215.03L150.098 235.365L139.041 226.888L133.068 232.29L130.36 234.74L125.657 239.013C124.861 239.736 123.91 240.103 122.944 240.167C121.883 240.271 120.834 239.987 119.98 239.387C119.337 238.973 118.804 238.377 118.448 237.642C118.417 237.603 118.406 237.548 118.374 237.509L116.263 232.852L106.481 211.271C105.617 209.41 106.131 207.196 107.712 205.857L142.834 176.487L151.278 169.424C152.066 168.771 152.997 168.42 153.909 168.368C153.999 168.361 154.089 168.355 154.14 168.378L154.159 168.362C155.921 168.34 157.652 169.329 158.417 171.108Z" fill="url(#paint5_linear_292_55)"/>
<path d="M153.905 168.371C152.996 168.413 152.065 168.767 151.276 169.424L142.825 176.489L107.706 205.852C106.13 207.201 105.614 209.412 106.484 211.266L116.262 232.855L118.375 237.511C118.413 237.546 118.416 237.601 118.455 237.635C118.799 238.384 119.338 238.979 119.976 239.386C120.39 239.659 120.837 239.874 121.317 240.015C116.918 239.456 105.435 237.827 104.399 235.561L92.4909 209.336C91.6376 207.463 92.1526 205.234 93.7133 203.922L137.283 167.493C140.016 165.561 151.792 168.379 153.905 168.371Z" fill="url(#paint6_linear_292_55)"/>
<path d="M141.135 252.434C141.754 252.524 142.209 252.596 142.483 252.65C142.009 252.651 141.572 252.579 141.135 252.434Z" fill="url(#paint7_linear_292_55)"/>
<path d="M142.683 252.669C142.646 252.669 142.61 252.669 142.537 252.651L142.646 252.651C142.664 252.651 142.664 252.651 142.683 252.669Z" fill="url(#paint8_linear_292_55)"/>
<path d="M150.098 235.366L136.123 233.413L133.825 231.664L133.068 232.291L139.041 226.889L150.098 235.366Z" fill="url(#paint9_linear_292_55)"/>
<path d="M210.682 88.221L197.415 123.236C196.437 125.816 197.228 128.755 199.364 130.539L222.423 149.55L226.615 178.002L241.599 165.356L250.352 172.556L254.321 175.821L261.214 181.519C262.381 182.482 263.742 182.936 265.103 182.961C266.603 183.038 268.059 182.569 269.219 181.67C270.096 181.046 270.806 180.172 271.258 179.115C271.299 179.058 271.311 178.981 271.353 178.924L274.013 172.237L286.342 141.255C287.433 138.581 286.565 135.503 284.254 133.725L232.944 94.7547L220.607 85.3836C219.456 84.5172 218.124 84.0847 216.838 84.0727C216.711 84.0682 216.585 84.0652 216.515 84.1011L216.487 84.0802C214.008 84.1655 211.641 85.6695 210.682 88.221Z" fill="url(#paint10_linear_292_55)"/>
<path d="M216.844 84.0756C218.125 84.0756 219.457 84.5111 220.61 85.382L232.956 94.7576L284.261 133.717C286.566 135.51 287.437 138.584 286.336 141.248L274.015 172.242L271.351 178.927C271.3 178.977 271.3 179.055 271.248 179.106C270.812 180.182 270.094 181.053 269.225 181.668C268.661 182.078 268.047 182.41 267.381 182.641C273.529 181.565 289.564 178.517 290.87 175.263L305.88 137.611C306.956 134.922 306.085 131.823 303.804 130.081L240.152 81.7455C236.184 79.209 219.815 83.9484 216.844 84.0756Z" fill="url(#paint11_linear_292_55)"/>
<path d="M267.228 182.666C266.357 182.795 265.717 182.897 265.332 182.973C265.998 182.975 266.613 182.871 267.228 182.666Z" fill="url(#paint12_linear_292_55)"/>
<path d="M265.051 183C265.102 183 265.153 183 265.256 182.975H265.102C265.076 182.975 265.076 182.975 265.051 183Z" fill="url(#paint13_linear_292_55)"/>
<path d="M226.615 178.003L246.132 174.335L249.246 171.725L250.352 172.557L241.599 165.358L226.615 178.003Z" fill="url(#paint14_linear_292_55)"/>
<defs>
<linearGradient id="paint0_linear_292_55" x1="50.3242" y1="20.0383" x2="105.121" y2="82.5153" gradientUnits="userSpaceOnUse">
<stop stop-color="#D6E7FA"/>
<stop offset="1" stop-color="#749DED"/>
</linearGradient>
<linearGradient id="paint1_linear_292_55" x1="59.7753" y1="70.5665" x2="58.2412" y2="89.359" gradientUnits="userSpaceOnUse">
<stop stop-color="#8FAFFF"/>
<stop offset="0.5478" stop-color="#4982EB"/>
<stop offset="1" stop-color="#0D5ADA"/>
</linearGradient>
<linearGradient id="paint2_linear_292_55" x1="61.5657" y1="70.711" x2="60.0315" y2="89.5039" gradientUnits="userSpaceOnUse">
<stop stop-color="#8FAFFF"/>
<stop offset="0.5478" stop-color="#4982EB"/>
<stop offset="1" stop-color="#0D5ADA"/>
</linearGradient>
<linearGradient id="paint3_linear_292_55" x1="63.1431" y1="70.823" x2="61.6083" y2="89.6203" gradientUnits="userSpaceOnUse">
<stop stop-color="#8FAFFF"/>
<stop offset="0.5478" stop-color="#4982EB"/>
<stop offset="1" stop-color="#0D5ADA"/>
</linearGradient>
<linearGradient id="paint4_linear_292_55" x1="100.703" y1="-75.3668" x2="98.1004" y2="10.9825" gradientUnits="userSpaceOnUse">
<stop stop-color="#8FAFFF"/>
<stop offset="0.5478" stop-color="#4982EB"/>
<stop offset="1" stop-color="#0D5ADA"/>
</linearGradient>
<linearGradient id="paint5_linear_292_55" x1="116.418" y1="178.181" x2="145.851" y2="208.724" gradientUnits="userSpaceOnUse">
<stop stop-color="#D6EAFA"/>
<stop offset="1" stop-color="#74B5ED"/>
</linearGradient>
<linearGradient id="paint6_linear_292_55" x1="122.445" y1="203.717" x2="122.113" y2="213.335" gradientUnits="userSpaceOnUse">
<stop stop-color="#8FCBFF"/>
<stop offset="0.5478" stop-color="#4997EB"/>
<stop offset="1" stop-color="#0D85DA"/>
</linearGradient>
<linearGradient id="paint7_linear_292_55" x1="144.72" y1="216.279" x2="143.95" y2="225.872" gradientUnits="userSpaceOnUse">
<stop stop-color="#8FD0FF"/>
<stop offset="0.5478" stop-color="#49A8EB"/>
<stop offset="1" stop-color="#0D8BDA"/>
</linearGradient>
<linearGradient id="paint8_linear_292_55" x1="145.526" y1="216.335" x2="144.755" y2="225.931" gradientUnits="userSpaceOnUse">
<stop stop-color="#8FBEFF"/>
<stop offset="0.5478" stop-color="#498DEB"/>
<stop offset="1" stop-color="#0D81DA"/>
</linearGradient>
<linearGradient id="paint9_linear_292_55" x1="139.821" y1="128.333" x2="140.56" y2="172.421" gradientUnits="userSpaceOnUse">
<stop stop-color="#8FC1FF"/>
<stop offset="0.5478" stop-color="#4992EB"/>
<stop offset="1" stop-color="#0D8BDA"/>
</linearGradient>
<linearGradient id="paint10_linear_292_55" x1="270.19" y1="95.3938" x2="230.829" y2="140.272" gradientUnits="userSpaceOnUse">
<stop stop-color="#F4EFFF"/>
<stop offset="1" stop-color="#DDDAFF"/>
</linearGradient>
<linearGradient id="paint11_linear_292_55" x1="263.401" y1="131.689" x2="264.503" y2="145.187" gradientUnits="userSpaceOnUse">
<stop stop-color="#E1D3FF"/>
<stop offset="0.5478" stop-color="#BDB6FF"/>
<stop offset="1" stop-color="#A79DFE"/>
</linearGradient>
<linearGradient id="paint12_linear_292_55" x1="262.115" y1="131.792" x2="263.217" y2="145.292" gradientUnits="userSpaceOnUse">
<stop stop-color="#BDB6FF"/>
<stop offset="0.5478" stop-color="#A79DFE"/>
<stop offset="1" stop-color="#998DFF"/>
</linearGradient>
<linearGradient id="paint13_linear_292_55" x1="260.982" y1="131.873" x2="262.084" y2="145.375" gradientUnits="userSpaceOnUse">
<stop stop-color="#F4EFFF"/>
<stop offset="0.5478" stop-color="#EEE7FF"/>
<stop offset="1" stop-color="#E2DFFF"/>
</linearGradient>
<linearGradient id="paint14_linear_292_55" x1="234.002" y1="26.8632" x2="235.871" y2="88.8888" gradientUnits="userSpaceOnUse">
<stop stop-color="#F4EFFF"/>
<stop offset="0.5478" stop-color="#EEE7FF"/>
<stop offset="1" stop-color="#9F95FB"/>
</linearGradient>
</defs>
</svg>
