<svg width="19" height="20" viewBox="0 0 19 20" fill="none" xmlns="http://www.w3.org/2000/svg">
<path d="M4.12604 6.59471C4.48822 4.71135 6.13619 3.3501 8.05406 3.3501H10.9459C12.8638 3.3501 14.5118 4.71135 14.874 6.59471L16.625 15.7001H2.375L4.12604 6.59471Z" stroke="#7651BE" stroke-linejoin="round"/>
<path d="M0 15.7002H19" stroke="#7651BE" stroke-linejoin="round"/>
<path d="M6.6499 15.7002H12.3499V16.5502C12.3499 17.6548 11.4545 18.5502 10.3499 18.5502H8.6499C7.54533 18.5502 6.6499 17.6548 6.6499 16.5502V15.7002Z" stroke="#7651BE" stroke-linejoin="round"/>
<path d="M7.6001 3.3501H11.4001V2.4001C11.4001 1.35076 10.5494 0.500098 9.5001 0.500098C8.45076 0.500098 7.6001 1.35076 7.6001 2.4001V3.3501Z" stroke="#7651BE" stroke-linejoin="round"/>
</svg>
