<svg width="19" height="19" viewBox="0 0 19 19" fill="none" xmlns="http://www.w3.org/2000/svg">
<path d="M11 2.66309H10.5C10.5 2.89812 10.6637 3.10143 10.8933 3.15157L11 2.66309ZM13.2725 3.60449L13.0026 4.0254C13.2003 4.15218 13.4596 4.12425 13.6258 3.95827L13.2725 3.60449ZM14.8037 2.0752L15.1573 1.72164C14.9621 1.52647 14.6457 1.52637 14.4504 1.72142L14.8037 2.0752ZM16.9248 4.19629L17.2784 4.54984C17.4736 4.35458 17.4736 4.038 17.2784 3.84274L16.9248 4.19629ZM15.3945 5.72656L15.041 5.37301C14.8748 5.5392 14.8468 5.79871 14.9737 5.99653L15.3945 5.72656ZM16.3369 8L15.8484 8.10668C15.8986 8.3363 16.1019 8.5 16.3369 8.5V8ZM18.5 8H19C19 7.72386 18.7761 7.5 18.5 7.5V8ZM18.5 11V11.5C18.7761 11.5 19 11.2761 19 11H18.5ZM16.3369 11V10.5C16.1019 10.5 15.8986 10.6637 15.8484 10.8933L16.3369 11ZM15.3945 13.2725L14.9736 13.0025C14.8468 13.2003 14.8748 13.4597 15.0409 13.6259L15.3945 13.2725ZM16.9248 14.8037L17.2784 15.1573C17.4736 14.962 17.4736 14.6456 17.2785 14.4503L16.9248 14.8037ZM14.8037 16.9248L14.4503 17.2785C14.6456 17.4736 14.962 17.4736 15.1573 17.2784L14.8037 16.9248ZM13.2725 15.3945L13.6259 15.0409C13.4597 14.8748 13.2003 14.8468 13.0025 14.9736L13.2725 15.3945ZM11 16.3359L10.8933 15.8475C10.6637 15.8976 10.5 16.1009 10.5 16.3359H11ZM11 18.5V19C11.2761 19 11.5 18.7761 11.5 18.5H11ZM8 18.5H7.5C7.5 18.7761 7.72386 19 8 19V18.5ZM8 16.3359H8.5C8.5 16.1009 8.33631 15.8976 8.10669 15.8475L8 16.3359ZM5.72656 15.3945L5.99653 14.9737C5.79871 14.8468 5.5392 14.8748 5.37301 15.041L5.72656 15.3945ZM4.19629 16.9248L3.84274 17.2784C4.038 17.4736 4.35458 17.4736 4.54984 17.2784L4.19629 16.9248ZM2.0752 14.8037L1.72142 14.4504C1.52637 14.6457 1.52647 14.9621 1.72164 15.1573L2.0752 14.8037ZM3.60449 13.2725L3.95827 13.6258C4.12425 13.4596 4.15218 13.2003 4.0254 13.0026L3.60449 13.2725ZM2.66309 11L3.15157 10.8933C3.10143 10.6637 2.89812 10.5 2.66309 10.5V11ZM0.5 11H0C0 11.2761 0.223858 11.5 0.5 11.5L0.5 11ZM0.5 8V7.5C0.223858 7.5 0 7.72386 0 8H0.5ZM2.66309 8V8.5C2.89812 8.5 3.10143 8.3363 3.15157 8.10668L2.66309 8ZM3.60449 5.72656L4.02536 5.9965C4.15221 5.79873 4.12425 5.53931 3.95816 5.37312L3.60449 5.72656ZM2.0752 4.19629L1.72164 3.84274C1.52642 4.03795 1.52637 4.35445 1.72153 4.54973L2.0752 4.19629ZM4.19629 2.0752L4.54973 1.72153C4.35445 1.52637 4.03795 1.52642 3.84274 1.72164L4.19629 2.0752ZM5.72656 3.60449L5.37312 3.95816C5.53931 4.12425 5.79873 4.15221 5.9965 4.02536L5.72656 3.60449ZM8 2.66309L8.10668 3.15157C8.3363 3.10143 8.5 2.89812 8.5 2.66309H8ZM8 0.5V0C7.72386 0 7.5 0.223858 7.5 0.5L8 0.5ZM11 0.5H11.5C11.5 0.223858 11.2761 0 11 0V0.5ZM11 2.66309L10.8933 3.15157C11.655 3.31792 12.3663 3.61742 13.0026 4.0254L13.2725 3.60449L13.5424 3.18359C12.808 2.71273 11.9865 2.36674 11.1067 2.1746L11 2.66309ZM13.2725 3.60449L13.6258 3.95827L15.157 2.42897L14.8037 2.0752L14.4504 1.72142L12.9191 3.25071L13.2725 3.60449ZM14.8037 2.0752L14.4502 2.42875L16.5713 4.54984L16.9248 4.19629L17.2784 3.84274L15.1573 1.72164L14.8037 2.0752ZM16.9248 4.19629L16.5713 3.84274L15.041 5.37301L15.3945 5.72656L15.7481 6.08012L17.2784 4.54984L16.9248 4.19629ZM15.3945 5.72656L14.9737 5.99653C15.3821 6.63316 15.682 7.34468 15.8484 8.10668L16.3369 8L16.8254 7.89332C16.6331 7.01292 16.2866 6.19112 15.8154 5.45659L15.3945 5.72656ZM16.3369 8V8.5H18.5V8V7.5H16.3369V8ZM18.5 8H18V11H18.5H19V8H18.5ZM18.5 11V10.5H16.3369V11V11.5H18.5V11ZM16.3369 11L15.8484 10.8933C15.6821 11.6549 15.3819 12.3659 14.9736 13.0025L15.3945 13.2725L15.8154 13.5424C16.2862 12.8082 16.6332 11.987 16.8254 11.1067L16.3369 11ZM15.3945 13.2725L15.0409 13.6259L16.5711 15.1572L16.9248 14.8037L17.2785 14.4503L15.7482 12.919L15.3945 13.2725ZM16.9248 14.8037L16.5713 14.4502L14.4502 16.5713L14.8037 16.9248L15.1573 17.2784L17.2784 15.1573L16.9248 14.8037ZM14.8037 16.9248L15.1572 16.5711L13.6259 15.0409L13.2725 15.3945L12.919 15.7482L14.4503 17.2785L14.8037 16.9248ZM13.2725 15.3945L13.0025 14.9736C12.3663 15.3817 11.6551 15.6811 10.8933 15.8475L11 16.3359L11.1067 16.8244C11.9866 16.6322 12.808 16.2864 13.5424 15.8154L13.2725 15.3945ZM11 16.3359H10.5V18.5H11H11.5V16.3359H11ZM11 18.5V18H8V18.5V19H11V18.5ZM8 18.5H8.5V16.3359H8H7.5V18.5H8ZM8 16.3359L8.10669 15.8475C7.34439 15.681 6.63278 15.3818 5.99653 14.9737L5.72656 15.3945L5.45659 15.8154C6.19139 16.2867 7.01336 16.6322 7.89331 16.8244L8 16.3359ZM5.72656 15.3945L5.37301 15.041L3.84274 16.5713L4.19629 16.9248L4.54984 17.2784L6.08012 15.7481L5.72656 15.3945ZM4.19629 16.9248L4.54984 16.5713L2.42875 14.4502L2.0752 14.8037L1.72164 15.1573L3.84274 17.2784L4.19629 16.9248ZM2.0752 14.8037L2.42897 15.157L3.95827 13.6258L3.60449 13.2725L3.25071 12.9191L1.72142 14.4504L2.0752 14.8037ZM3.60449 13.2725L4.0254 13.0026C3.61742 12.3663 3.31792 11.655 3.15157 10.8933L2.66309 11L2.1746 11.1067C2.36674 11.9865 2.71273 12.808 3.18359 13.5424L3.60449 13.2725ZM2.66309 11V10.5H0.5V11V11.5H2.66309V11ZM0.5 11H1V8H0.5H0V11H0.5ZM0.5 8V8.5H2.66309V8V7.5H0.5V8ZM2.66309 8L3.15157 8.10668C3.31802 7.34452 3.61729 6.63274 4.02536 5.9965L3.60449 5.72656L3.18362 5.45662C2.7124 6.19131 2.36676 7.01343 2.1746 7.89332L2.66309 8ZM3.60449 5.72656L3.95816 5.37312L2.42886 3.84285L2.0752 4.19629L1.72153 4.54973L3.25083 6.08L3.60449 5.72656ZM2.0752 4.19629L2.42875 4.54984L4.54984 2.42875L4.19629 2.0752L3.84274 1.72164L1.72164 3.84274L2.0752 4.19629ZM4.19629 2.0752L3.84285 2.42886L5.37312 3.95816L5.72656 3.60449L6.08 3.25083L4.54973 1.72153L4.19629 2.0752ZM5.72656 3.60449L5.9965 4.02536C6.63274 3.61729 7.34452 3.31802 8.10668 3.15157L8 2.66309L7.89332 2.1746C7.01343 2.36676 6.19131 2.7124 5.45662 3.18362L5.72656 3.60449ZM8 2.66309H8.5V0.5H8H7.5V2.66309H8ZM8 0.5V1H11V0.5V0H8V0.5ZM11 0.5H10.5V2.66309H11H11.5V0.5H11Z" fill="black"/>
<circle cx="9.5" cy="9.5" r="3" stroke="black"/>
</svg>
